<svg width="114" height="186" viewBox="0 0 114 186" fill="none" xmlns="http://www.w3.org/2000/svg">
<path d="M2.91428 43.5667L23.8053 57.8337C23.5045 58.7861 23.3048 59.5793 23.2145 60.1659C22.0981 67.4217 16.8879 73.3752 10.0029 73.0031C3.21023 72.6359 -1.95233 65.2061 2.91428 43.5667Z" fill="#4EDE96" stroke="black" stroke-width="2"/>
<path d="M18.1904 176.073C16.7968 174.352 15.785 172.365 15.1057 170.166L38.1503 158.501C40.3029 161.469 45.621 162.348 52.3172 162.1L48.5026 184.987C34.99 184.771 23.2527 182.321 18.1904 176.073Z" fill="#4EDE96" stroke="black" stroke-width="2"/>
<path d="M76.7943 182.852C67.56 184.261 57.6266 185.133 48.5027 184.987L52.3172 162.1C58.6644 161.865 66.2498 160.618 73.5511 159.176L76.7943 182.852Z" fill="#74C9F1" stroke="black" stroke-width="2"/>
<path d="M99.8551 177.817C93.6466 179.704 85.5334 181.518 76.7943 182.852L73.551 159.176C80.59 157.786 87.3649 156.216 92.5117 155.199L99.8551 177.817Z" fill="#4EDE96" stroke="black" stroke-width="2"/>
<path d="M99.8551 177.817L92.5117 155.199C95.8261 154.544 98.4653 154.119 100.065 154.119C110.485 154.119 115.696 164.724 111.602 172.166C110.69 173.823 106.298 175.859 99.8551 177.817Z" fill="#74C9F1" stroke="black" stroke-width="2"/>
<path d="M15.1058 170.166C12.4962 161.717 14.7935 150.138 19.2045 138.557L39.8949 144.733C38.4846 147.646 37.5606 150.68 37.1705 154.119C36.966 155.922 37.3261 157.365 38.1505 158.501L15.1058 170.166Z" fill="#74C9F1" stroke="black" stroke-width="2"/>
<path d="M19.2043 138.557C21.9654 131.307 25.5548 124.056 29.2872 117.571L51.3734 129.18C46.25 134.991 42.3409 139.68 39.8947 144.733L19.2043 138.557Z" fill="#4EDE96" stroke="black" stroke-width="2"/>
<path d="M44.6137 96.2588C45.1312 95.7656 45.6709 95.2331 46.2282 94.664L66.0474 112.105C60.4502 119.053 55.5151 124.483 51.3735 129.18L29.2874 117.571C34.8277 107.944 40.6834 100.004 44.6137 96.2588Z" fill="#74C9F1" stroke="black" stroke-width="2"/>
<path d="M46.228 94.664C50.1966 90.6117 55.0614 84.7044 59.2129 77.9397L81.5101 90.8345C81.1896 91.3434 80.8619 91.8493 80.5268 92.3518C75.3285 100.148 70.4802 106.602 66.0473 112.105L46.228 94.664Z" fill="#4EDE96" stroke="black" stroke-width="2"/>
<path d="M59.2129 77.9397C62.56 72.4857 65.4434 66.4745 67.0193 60.4288L91.7037 63.0424C90.3039 72.6038 86.9658 82.1693 81.5101 90.8345L59.2129 77.9397Z" fill="#74C9F1" stroke="black" stroke-width="2"/>
<path d="M67.0195 60.4288C69.0686 52.5682 68.9074 44.6493 64.6816 37.8216L83.2496 19.2536C90.9505 30.9972 94.0506 47.014 91.7039 63.0424L67.0195 60.4288Z" fill="#4EDE96" stroke="black" stroke-width="2"/>
<path d="M61.1747 33.3752C57.3625 29.489 53.5954 27.952 50 28.036V1.00358C50.0653 1.00335 50.1306 1.00323 50.196 1.00323C64.787 1.00323 76.0365 8.25398 83.2496 19.2536L64.6816 37.8216C63.7271 36.2794 62.5653 34.7929 61.1747 33.3752Z" fill="#74C9F1" stroke="black" stroke-width="2"/>
<path d="M50 28.0359C44.4832 28.1648 39.3706 32.1102 35.1198 37.242L14.6028 17.7509C22.039 8.59001 33.4211 1.06246 50 1.00357V28.0359Z" fill="#4EDE96" stroke="black" stroke-width="2"/>
<path d="M23.8054 57.8337L2.91431 43.5667C2.98037 43.2729 3.04828 42.9766 3.11805 42.6776C4.2463 36.028 7.74799 26.1955 14.6028 17.7509L35.1197 37.242C29.4627 44.0713 25.3318 53.0016 23.8054 57.8337Z" fill="#74C9F1" stroke="black" stroke-width="2"/>
</svg>
