<svg width="137" height="186" viewBox="0 0 137 186" fill="none" xmlns="http://www.w3.org/2000/svg">
<path d="M25.6187 180.278L33.2238 156.92C21.6141 155.103 7.70007 154.953 6.01131 164.583C4.84195 171.251 12.5705 176.694 25.6187 180.278Z" fill="#74C9F1" stroke="black" stroke-width="2"/>
<path d="M25.6187 180.278C32.9181 182.283 41.8823 183.707 51.8847 184.437L57.1312 161.994C52.2703 161.174 48.4881 160.238 46.6873 159.777C43.775 159.032 38.7616 157.786 33.2238 156.92L25.6187 180.278Z" fill="#4EDE96" stroke="black" stroke-width="2"/>
<path d="M51.8848 184.437C60.2405 185.048 69.3207 185.175 78.7603 184.754L77.0565 163.457C69.9027 163.746 62.7869 162.948 57.1313 161.994L51.8848 184.437Z" fill="#74C9F1" stroke="black" stroke-width="2"/>
<path d="M85.2527 184.38C95.915 183.631 104.617 181.157 111.611 177.438L96.5556 158.769C90.8667 161.893 83.9439 163.179 77.0564 163.457L78.7601 184.754C80.9072 184.658 83.0728 184.534 85.2527 184.38Z" fill="#4EDE96" stroke="black" stroke-width="2"/>
<path d="M111.611 177.438C121.752 172.045 128.303 164.035 132.035 154.865L107.773 145.879C105.528 151.935 101.51 156.049 96.5557 158.769L111.611 177.438Z" fill="#74C9F1" stroke="black" stroke-width="2"/>
<path d="M132.035 154.865C136.098 144.88 136.819 133.52 135.192 122.67L109.109 125.68C109.231 126.519 109.337 127.377 109.428 128.255C110.174 135.439 109.496 141.231 107.773 145.879L132.035 154.865Z" fill="#4EDE96" stroke="black" stroke-width="2"/>
<path d="M134.947 121.143C133.132 110.524 128.734 100.016 121.796 91.1065L99.1501 102.969C104.075 108.301 107.658 115.639 109.109 125.68L135.192 122.67C135.115 122.16 135.033 121.651 134.947 121.143Z" fill="#74C9F1" stroke="black" stroke-width="2"/>
<path d="M121.796 91.1065C114.219 81.3754 103.61 73.552 90.0237 69.5768L79.1001 91.7274C86.7046 93.6692 93.7376 97.1077 99.1502 102.969L121.796 91.1065Z" fill="#4EDE96" stroke="black" stroke-width="2"/>
<path d="M67.2172 66.7472C63.6755 66.8321 60.4212 66.899 57.431 66.9324L54.572 89.4869C62.5733 89.3031 71.149 89.6971 79.1001 91.7274L90.0237 69.5768C83.1756 67.573 75.5711 66.547 67.2172 66.7472Z" fill="#74C9F1" stroke="black" stroke-width="2"/>
<path d="M57.4311 66.9324C46.5907 67.0535 39.2233 66.7344 34.2264 65.237L17.375 88.6227C21.5042 90.3061 26.4143 90.979 32.1054 90.7736C37.9011 90.5644 45.899 89.6861 54.5721 89.4869L57.4311 66.9324Z" fill="#4EDE96" stroke="black" stroke-width="2"/>
<path d="M34.2263 65.237C28.9627 63.6596 26.3296 60.7746 25.0386 55.719L1.26172 59.1649C2.46752 75.4578 7.83857 84.7349 17.3749 88.6227L34.2263 65.237Z" fill="#74C9F1" stroke="black" stroke-width="2"/>
<path d="M23.855 40.222C23.855 37.8995 24.3866 35.8668 25.359 34.0915L3.64811 25.2898C2.07087 31.5742 1.20608 39.4594 1.02272 49.256C0.956156 52.8124 1.03585 56.1119 1.2618 59.165L25.0387 55.719C24.0658 51.9092 23.855 46.8666 23.855 40.222Z" fill="#4EDE96" stroke="black" stroke-width="2"/>
<path d="M25.3591 34.0915C27.7961 29.6424 33.0014 26.8103 39.5455 25.0858L33.3626 2.63232C29.792 2.98713 26.5708 3.40581 23.8551 3.89412C13.6567 5.72787 7.02227 11.846 3.64819 25.2898L25.3591 34.0915Z" fill="#74C9F1" stroke="black" stroke-width="2"/>
<path d="M39.5454 25.0859C46.5174 23.2486 55.009 22.6687 63.2912 22.7303L61.4399 1.13251C51.496 1.34485 41.5177 1.82199 33.3625 2.63234L39.5454 25.0859Z" fill="#4EDE96" stroke="black" stroke-width="2"/>
<path d="M63.2912 22.7303C74.2795 22.8119 84.8992 24.0228 91.1125 24.9245L90.2023 1.26068C89.7141 1.23741 89.2156 1.21817 88.7065 1.20317C80.7982 0.97016 71.1354 0.925464 61.4399 1.1325L63.2912 22.7303Z" fill="#74C9F1" stroke="black" stroke-width="2"/>
<path d="M96.3812 25.8062C101.562 26.9595 119.789 22.7308 110.963 8.31499C110.097 6.20743 104.729 1.95288 90.2024 1.26068L91.1125 24.9245C93.8078 25.3157 95.6739 25.6487 96.3812 25.8062Z" fill="#4EDE96" stroke="black" stroke-width="2"/>
</svg>
