<svg width="147" height="171" viewBox="0 0 147 171" fill="none" xmlns="http://www.w3.org/2000/svg">
<path d="M132.357 169.829C106.417 169.829 99.9324 130.08 99.9324 110.206C85.1097 119.746 62.4343 114.181 52.9495 110.206C52.9495 128.976 47.1263 167.179 23.8333 169.829C-5.28286 173.141 0.0109961 127.43 4.64312 110.206C9.27523 92.9815 53.6112 -29.577 93.9768 8.18427C134.342 45.9455 164.782 169.829 132.357 169.829Z" fill="#74C9F1" stroke="black" stroke-width="2"/>
<path d="M67.0998 62.7126C66.0345 52.6776 73.7583 51.4892 77.7534 52.1494C79.7509 52.1494 84.1455 54.2621 85.7435 62.7126C87.3415 71.1632 81.0826 73.7159 77.7534 73.936C74.6461 74.3761 68.1652 72.7476 67.0998 62.7126Z" fill="#5D77DF" stroke="black" stroke-width="2"/>
</svg>
