<svg width="149" height="189" viewBox="0 0 149 189" fill="none" xmlns="http://www.w3.org/2000/svg">
<path d="M59.1661 187.33C73.946 187.33 96.2619 183.935 114.722 174.47C133.208 164.991 147.983 149.321 147.165 124.797C146.758 112.597 143.01 103.411 137.129 96.6281C131.731 90.4024 124.588 86.2657 116.738 83.6506C131.053 77.0986 142.321 66.4727 143.237 49.797C143.882 38.0564 138.83 28.6791 130.471 21.4465C122.14 14.2385 110.509 9.13932 97.8663 5.83708C72.6038 -0.761314 42.8977 -0.282648 26.418 5.29509C23.0947 6.41992 20.6932 8.24583 19.1446 10.6691C16.6045 13.397 14.4203 16.8736 12.5401 20.9074C7.30975 32.1289 4.29779 47.9561 2.66997 64.9855C-0.588556 99.0753 1.66754 138.396 3.169 156.413C3.78567 163.813 6.35241 169.497 10.2129 173.833C14.0624 178.156 19.1493 181.085 24.7305 183.072C35.8637 187.038 49.1775 187.33 59.1661 187.33Z" fill="#74C9F1"/>
<path fill-rule="evenodd" clip-rule="evenodd" d="M59.1661 187.33L59.1661 188.33H59.1661V187.33ZM114.722 174.47L115.178 175.36V175.36L114.722 174.47ZM147.165 124.797L148.165 124.764V124.764L147.165 124.797ZM137.129 96.6281L137.884 95.973V95.973L137.129 96.6281ZM116.738 83.6506L116.422 84.5993L114.015 83.7973L116.322 82.7413L116.738 83.6506ZM143.237 49.797L144.236 49.8519V49.8519L143.237 49.797ZM130.471 21.4465L131.125 20.6902V20.6902L130.471 21.4465ZM97.8663 5.83708L98.119 4.86954V4.86954L97.8663 5.83708ZM26.418 5.29509L26.0974 4.34787H26.0974L26.418 5.29509ZM19.1446 10.6691L19.9872 11.2076L19.9383 11.2841L19.8764 11.3506L19.1446 10.6691ZM12.5401 20.9074L11.6337 20.4849H11.6337L12.5401 20.9074ZM2.66997 64.9855L1.67451 64.8904H1.67451L2.66997 64.9855ZM3.169 156.413L2.17245 156.496V156.496L3.169 156.413ZM10.2129 173.833L9.46611 174.498L9.46609 174.498L10.2129 173.833ZM24.7305 183.072L24.395 184.014L24.395 184.014L24.7305 183.072ZM59.1661 187.33L59.1661 186.33C73.8327 186.33 95.9823 182.955 114.265 173.58L114.722 174.47L115.178 175.36C96.5414 184.916 74.0592 188.33 59.1661 188.33L59.1661 187.33ZM114.722 174.47L114.265 173.58C132.549 164.205 146.966 148.83 146.166 124.83L147.165 124.797L148.165 124.764C148.999 149.811 133.868 165.776 115.178 175.36L114.722 174.47ZM147.165 124.797L146.166 124.83C145.766 112.83 142.086 103.872 136.373 97.2832L137.129 96.6281L137.884 95.973C143.934 102.95 147.751 112.365 148.165 124.764L147.165 124.797ZM137.129 96.6281L136.373 97.2832C131.12 91.2253 124.148 87.173 116.422 84.5993L116.738 83.6506L117.054 82.7018C125.029 85.3584 132.341 89.5795 137.884 95.973L137.129 96.6281ZM116.738 83.6506L116.322 82.7413C130.462 76.2695 141.351 65.8972 142.239 49.7422L143.237 49.797L144.236 49.8519C143.291 67.0482 131.644 77.9277 117.155 84.5598L116.738 83.6506ZM143.237 49.797L142.239 49.7422C142.864 38.3673 137.988 29.2731 129.816 22.2027L130.471 21.4465L131.125 20.6902C139.672 28.085 144.901 37.7454 144.236 49.8519L143.237 49.797ZM130.471 21.4465L129.816 22.2027C121.645 15.1326 110.176 10.0858 97.6135 6.80463L97.8663 5.83708L98.119 4.86954C110.842 8.19281 122.635 13.3445 131.125 20.6902L130.471 21.4465ZM97.8663 5.83708L97.6135 6.80463C72.4886 0.242142 42.9886 0.74231 26.7386 6.24231L26.418 5.29509L26.0974 4.34787C42.8068 -1.3076 72.719 -1.76477 98.119 4.86954L97.8663 5.83708ZM26.418 5.29509L26.7386 6.24231C23.5968 7.30569 21.3954 9.0041 19.9872 11.2076L19.1446 10.6691L18.302 10.1306C19.991 7.48755 22.5926 5.53413 26.0974 4.34787L26.418 5.29509ZM19.1446 10.6691L19.8764 11.3506C17.4274 13.9807 15.2965 17.3607 13.4465 21.3299L12.5401 20.9074L11.6337 20.4849C13.544 16.3864 15.7816 12.8134 18.4127 9.98766L19.1446 10.6691ZM12.5401 20.9074L13.4465 21.3299C8.29023 32.3924 5.29044 48.0807 3.66544 65.0807L2.66997 64.9855L1.67451 64.8904C3.30514 47.8315 6.32928 31.8654 11.6337 20.4849L12.5401 20.9074ZM2.66997 64.9855L3.66544 65.0807C0.415502 99.0805 2.66555 138.33 4.16554 156.33L3.169 156.413L2.17245 156.496C0.669524 138.461 -1.59262 99.0701 1.67451 64.8904L2.66997 64.9855ZM3.169 156.413L4.16554 156.33C4.76554 163.53 7.25355 169.006 10.9598 173.168L10.2129 173.833L9.46609 174.498C5.45128 169.989 2.8058 164.096 2.17245 156.496L3.169 156.413ZM10.2129 173.833L10.9598 173.168C14.666 177.33 19.5912 180.18 25.066 182.13L24.7305 183.072L24.395 184.014C18.7074 181.989 13.4588 178.982 9.46611 174.498L10.2129 173.833ZM24.7305 183.072L25.066 182.13C36.016 186.03 49.1663 186.33 59.1661 186.33V187.33V188.33C49.1886 188.33 35.7114 188.045 24.395 184.014L24.7305 183.072Z" fill="black"/>
<path d="M68.2654 128.713C67.2 118.678 74.9238 117.489 78.9189 118.149C80.9164 118.149 85.311 120.262 86.909 128.713C88.5071 137.163 82.2481 139.716 78.9189 139.936C75.8116 140.376 69.3307 138.748 68.2654 128.713Z" fill="#5D77DF" stroke="black" stroke-width="2"/>
<path d="M68.2654 45.7126C67.2 35.6775 74.9238 34.4892 78.9189 35.1494C80.9164 35.1494 85.311 37.262 86.909 45.7126C88.5071 54.1631 82.2481 56.7159 78.9189 56.936C75.8116 57.3761 69.3307 55.7476 68.2654 45.7126Z" fill="#5D77DF" stroke="black" stroke-width="2"/>
</svg>
