<svg width="216" height="121" viewBox="0 0 216 121" fill="none" xmlns="http://www.w3.org/2000/svg">
<path d="M173.522 18.191C187.922 18.591 191.188 29.691 191.022 35.191V85.191C191.022 97.691 186.521 101.691 177.021 103.691C167.521 105.691 69.0215 104.191 50.0215 103.691C31.0215 103.191 24.0216 98.691 24.0216 68.191C24.0216 37.691 22.5216 26.691 44.5216 20.691C66.5216 14.691 155.522 17.691 173.522 18.191Z" fill="#A8EA7F" stroke="black" stroke-width="2"/>
<path d="M49.5293 40.5163C49.1959 38.8497 47.4293 35.4163 43.0293 35.0163C37.5293 34.5163 31.5293 45.5163 32.0293 64.0163C32.5293 82.5163 40.0292 86.5163 43.0293 86.5163C46.0293 86.5163 49.5293 85.0163 49.5293 74.5163" stroke="black" stroke-width="2"/>
<path d="M97.5293 40.5163C97.1959 38.8497 95.4293 35.4163 91.0293 35.0163C85.5293 34.5163 79.5293 45.5163 80.0293 64.0163C80.5293 82.5163 88.0292 86.5163 91.0293 86.5163C94.0293 86.5163 97.5293 85.0163 97.5293 74.5163" stroke="black" stroke-width="2"/>
<path d="M55 35C54.5 49 53.8 77.7 55 80.5C56.5 84 56.5 88 68.5 86.5" stroke="black" stroke-width="2"/>
<path d="M73.5 87.5V35" stroke="black" stroke-width="2"/>
<path d="M107 61.8818L107.553 61.6055C109.818 60.4727 111.663 58.4288 113.162 55.8828C114.658 53.3415 115.771 50.3662 116.602 47.4736C117.431 44.5859 117.971 41.8135 118.335 39.6904C118.518 38.6252 118.653 37.7368 118.764 37.0596C118.818 36.7265 118.868 36.4376 118.912 36.2129C118.934 36.1009 118.958 35.993 118.982 35.8975C119.003 35.82 119.04 35.6834 119.105 35.5527L120.895 36.4473C120.929 36.3791 120.933 36.3432 120.918 36.4023C120.907 36.4433 120.893 36.5076 120.874 36.6016C120.837 36.7894 120.792 37.0491 120.738 37.3818C120.632 38.0366 120.49 38.9532 120.306 40.0283C119.935 42.1864 119.381 45.0393 118.523 48.0264C117.667 51.0085 116.498 54.1587 114.885 56.8984C113.626 59.0364 112.07 60.9629 110.146 62.3564C115.343 65.1067 122.135 72.5914 122.5 86.4736L120.5 86.5264C120.11 71.7064 112.079 64.9644 107.674 63.4453L107 63.2129V87.5H105V35H107V61.8818Z" fill="black"/>
<path d="M141 87V34C144.333 42.8333 151.5 61.1 153.5 63.5L164 34C163.667 49.8333 163.5 82.6 165.5 87" stroke="black" stroke-width="2"/>
<path d="M185 37H171.074C171.471 42.5464 171.918 51.0974 172.058 60H181V62H172.084C172.17 70.4406 171.957 79.0181 171.142 85.5H185V87.5H168.847L169.01 86.3584C170.992 72.4803 169.837 47.082 169.003 36.0752L168.921 35H185V37Z" fill="black"/>
</svg>
