<svg width="122" height="157" viewBox="0 0 122 157" fill="none" xmlns="http://www.w3.org/2000/svg">
<path d="M89.2365 3.15483C104.437 4.75483 108.903 16.4882 109.237 22.1548C105.737 35.6548 96.2366 39.1548 65.7366 36.6548C35.2366 34.1548 24.7366 57.6548 39.2366 66.6548C53.7366 75.6548 75.7366 69.1548 96.2366 71.6548C116.737 74.1548 109.392 93.6548 89.2365 93.6548C69.7366 93.6548 32.2365 92.6548 32.2365 107.655C32.2365 119.655 41.9032 121.655 46.7366 121.155C89.2366 112.155 131.237 127.155 118.237 143.155C105.237 159.155 68.2365 157.155 32.2365 153.155C-3.76346 149.155 1.23654 92.1548 1.23654 60.1548C1.23654 28.1548 3.23654 19.6548 15.7365 8.65483C28.2365 -2.34517 70.2365 1.15483 89.2365 3.15483Z" fill="#74C9F1" stroke="black" stroke-width="2"/>
</svg>
