<svg width="452" height="435" viewBox="0 0 452 435" fill="none" xmlns="http://www.w3.org/2000/svg">
<path d="M200.185 212.828C205.892 203.316 215.641 208.865 219.803 212.828C223.964 225.312 219.803 227.096 215.641 229.474C211.48 231.852 193.051 224.718 200.185 212.828Z" fill="#ECD7A4" stroke="black" stroke-width="2"/>
<path d="M229.303 195.337C233.44 188.254 240.506 192.386 243.522 195.337C246.539 204.634 243.522 205.962 240.506 207.733C237.49 209.504 224.133 204.191 229.303 195.337Z" fill="#ECD7A4" stroke="black" stroke-width="2"/>
<path d="M234.479 224.081C240.093 214.468 249.683 220.075 253.777 224.081C257.87 236.698 253.777 238.5 249.683 240.903C245.59 243.306 227.462 236.097 234.479 224.081Z" fill="#ECD7A4" stroke="black" stroke-width="2"/>
<path d="M247.837 175.824C240.285 172.505 250.984 140.46 257.278 124.852C280.288 73.8793 280.288 77.4355 305.069 51.3566C330.01 25.109 342.24 14.0162 342.24 28.2411C342.24 40.7442 307.378 62.6179 290.318 88.6969C276.748 109.442 257.278 179.973 247.837 175.824Z" fill="#EC5B5D" stroke="black" stroke-width="2"/>
<path d="M228.265 180.23C219.964 180.51 215.818 146.863 214.783 130.004C213.636 73.8782 215.175 77.0961 226.411 42.7246C237.72 8.13085 244.035 -7.22382 250.192 5.64715C255.604 16.9602 233.385 51.9099 229.166 82.9244C225.81 107.595 238.641 179.879 228.265 180.23Z" fill="#EC5B5D" stroke="black" stroke-width="2"/>
<path d="M264.786 210.072C261.555 202.421 291.492 186.513 306.865 179.515C358.867 158.366 356.413 160.955 392.529 159.152C428.879 157.338 445.477 157.742 435.66 168.096C427.032 177.196 386.446 168.95 355.975 176.105C331.737 181.797 268.826 219.637 264.786 210.072Z" fill="#EC5B5D" stroke="black" stroke-width="2"/>
<path d="M262.873 192.316C257.115 186.33 279.365 160.751 291.21 148.71C332.18 110.332 330.816 113.628 363.889 99.0041C397.175 84.2853 412.816 78.7156 407.361 91.8995C402.566 103.488 361.721 110.331 335.836 127.929C315.247 141.928 270.072 199.798 262.873 192.316Z" fill="#EC5B5D" stroke="black" stroke-width="2"/>
<path d="M264.787 251.11C269.269 244.117 299.321 259.808 313.787 268.527C360.642 299.448 357.119 298.888 379.034 327.652C401.092 356.602 410.146 370.519 396.055 368.28C383.67 366.312 367.514 328.178 344.378 307.097C325.974 290.328 259.185 259.851 264.787 251.11Z" fill="#EC5B5D" stroke="black" stroke-width="2"/>
<path d="M271.238 230.138C270.773 221.845 304.319 216.95 321.151 215.539C377.237 213.14 374.054 214.751 408.668 225.218C443.505 235.753 458.997 241.724 446.267 248.166C435.077 253.829 399.64 232.394 368.54 228.869C343.8 226.064 271.82 240.504 271.238 230.138Z" fill="#EC5B5D" stroke="black" stroke-width="2"/>
<path d="M243.099 258.802C250.822 255.746 266.042 286.04 272.687 301.568C292.643 354.039 290.111 351.527 291.089 387.675C292.073 424.057 291.289 440.641 281.162 430.59C272.261 421.756 281.432 381.37 274.975 350.743C269.838 326.381 233.445 262.622 243.099 258.802Z" fill="#EC5B5D" stroke="black" stroke-width="2"/>
<path d="M64.2627 379.016C68.9512 385.872 98.5225 369.293 112.722 360.147C158.634 327.843 155.13 328.508 176.178 299.103C197.363 269.509 205.998 255.329 191.98 257.987C179.659 260.323 164.647 298.921 142.149 320.682C124.254 337.993 58.4022 370.446 64.2627 379.016Z" fill="#EC5B5D" stroke="black" stroke-width="2"/>
<path d="M135.959 416.364C142.446 421.551 165.883 397.055 176.791 384.159C211.261 339.851 208.104 341.51 219.642 307.239C231.256 272.746 235.372 256.662 222.742 263.3C211.641 269.134 208.561 310.434 193.404 337.819C181.346 359.602 127.85 409.88 135.959 416.364Z" fill="#EC5B5D" stroke="black" stroke-width="2"/>
<path d="M208.104 187.564C215.577 183.939 203.545 152.244 196.595 136.85C171.423 86.672 171.563 90.2362 145.587 65.0777C119.444 39.7565 106.695 29.122 107.254 43.3788C107.746 55.91 143.705 76.4556 161.907 101.919C176.386 122.174 198.762 192.095 208.104 187.564Z" fill="#EC5B5D" stroke="black" stroke-width="2"/>
<path d="M191.504 199.11C197.226 193.09 174.824 167.644 162.908 155.674C121.709 117.541 123.093 120.829 89.9336 106.402C56.5602 91.8821 40.8867 86.4058 46.4202 99.5569C51.2838 111.116 92.1694 117.716 118.158 135.16C138.831 149.035 184.35 206.634 191.504 199.11Z" fill="#EC5B5D" stroke="black" stroke-width="2"/>
<path d="M180.726 214.134C182.508 206.022 150.173 195.837 133.782 191.758C78.7967 180.441 81.6816 182.539 45.8414 187.349C9.76951 192.19 -6.47646 195.613 5.06292 204.004C15.2056 211.379 53.6082 195.874 84.8732 197.356C109.743 198.534 178.497 224.274 180.726 214.134Z" fill="#EC5B5D" stroke="black" stroke-width="2"/>
<path d="M190.882 239.083C189.204 230.949 155.525 234.824 138.894 237.778C84.0697 249.849 87.5591 250.589 56.7894 269.586C25.8208 288.706 12.3795 298.452 26.3367 301.412C38.6045 304.015 67.3559 274.206 96.5113 262.82C119.703 253.762 192.979 249.252 190.882 239.083Z" fill="#EC5B5D" stroke="black" stroke-width="2"/>
<path d="M387.461 289.283C374.61 275.55 351.962 268.566 342.245 266.79C317.257 251.401 355.928 244.298 387.461 270.342C418.993 296.385 416.019 297.569 414.234 304.08C412.449 310.591 403.525 306.448 387.461 289.283Z" fill="#ECD7A4" stroke="black" stroke-width="2"/>
<path d="M229.195 357.878C237.109 340.776 235.048 317.173 233.028 307.509C237.898 278.55 259.111 311.627 246.807 350.686C234.502 389.744 232.278 387.442 225.549 388.264C218.821 389.085 219.302 379.256 229.195 357.878Z" fill="#ECD7A4" stroke="black" stroke-width="2"/>
<path d="M80.1397 232.407C97.4577 224.978 120.993 227.702 130.596 229.992C159.681 225.939 127.214 203.804 87.8244 215.005C48.4352 226.206 50.6738 228.494 49.6638 235.197C48.6538 241.9 58.4922 241.695 80.1397 232.407Z" fill="#ECD7A4" stroke="black" stroke-width="2"/>
<path d="M89.8232 164.865C108.651 165.664 128.688 178.307 136.353 184.529C164.326 193.464 144.64 159.457 104.284 152.504C63.9271 145.551 64.9547 148.583 61.1429 154.188C57.3311 159.793 66.2887 163.867 89.8232 164.865Z" fill="#ECD7A4" stroke="black" stroke-width="2"/>
<path d="M166.01 58.8685C180.699 70.673 189.341 92.7335 191.826 102.288C209.056 126.067 213.363 87.0092 184.984 57.4859C156.605 27.9626 155.635 31.0134 149.243 33.2675C142.85 35.5216 147.649 44.1129 166.01 58.8685Z" fill="#ECD7A4" stroke="black" stroke-width="2"/>
<path d="M101.928 89.7308C119.97 95.1738 136.245 112.391 142.128 120.32C167.012 135.913 156.374 98.0859 119.003 81.342C81.6314 64.598 81.8749 67.7899 76.7922 72.2743C71.7094 76.7588 79.3768 82.9272 101.928 89.7308Z" fill="#ECD7A4" stroke="black" stroke-width="2"/>
<path d="M112.776 303.012C124.911 288.594 147.161 280.455 156.77 278.188C180.933 261.5 141.983 256.31 111.824 284.012C81.6649 311.714 84.693 312.753 86.8016 319.195C88.9102 325.637 97.6081 321.034 112.776 303.012Z" fill="#ECD7A4" stroke="black" stroke-width="2"/>
<path d="M410.787 204.086C393.316 197.022 369.843 200.239 360.291 202.731C331.127 199.289 363.122 176.477 402.738 186.849C442.354 197.22 440.164 199.555 441.314 206.235C442.465 212.915 432.624 212.917 410.787 204.086Z" fill="#ECD7A4" stroke="black" stroke-width="2"/>
<path d="M397.038 139.673C378.322 137.476 356.533 146.782 347.979 151.71C318.942 156.096 343.772 125.64 384.721 125.175C425.669 124.71 424.174 127.541 427.048 133.679C429.923 139.818 420.433 142.42 397.038 139.673Z" fill="#ECD7A4" stroke="black" stroke-width="2"/>
<path d="M336.174 92.1448C318.449 98.5446 303.117 116.608 297.667 124.84C273.653 141.742 282.253 103.399 318.675 84.6809C355.098 65.9625 355.025 69.1629 360.341 73.3691C365.656 77.5754 358.329 84.1449 336.174 92.1448Z" fill="#ECD7A4" stroke="black" stroke-width="2"/>
<path d="M276.466 40.6088C264.536 55.1962 260.645 78.5671 260.19 88.429C248.25 115.258 235.958 77.935 257.617 43.1804C279.276 8.42584 280.856 11.2101 287.576 12.0933C294.297 12.9764 291.379 22.3745 276.466 40.6088Z" fill="#ECD7A4" stroke="black" stroke-width="2"/>
<path d="M312.742 333.603C306.244 315.914 288.096 300.683 279.834 295.278C262.799 271.359 301.188 279.745 320.109 316.063C339.029 352.381 335.829 352.326 331.652 357.665C327.475 363.003 320.865 355.713 312.742 333.603Z" fill="#ECD7A4" stroke="black" stroke-width="2"/>
<path d="M333.092 387.79C329.672 381.493 337.366 376.921 341.641 375.422C347.747 374.297 348.968 375.422 351.411 378.795C353.365 381.493 351.411 385.916 350.19 387.79C348.968 390.601 337.366 395.661 333.092 387.79Z" fill="#EC5B5D" stroke="black" stroke-width="2"/>
<path d="M211.092 414.295C207.672 407.257 215.366 402.147 219.641 400.471C225.747 399.215 226.968 400.471 229.411 404.241C231.365 407.257 229.411 412.2 228.19 414.295C226.968 417.436 215.366 423.092 211.092 414.295Z" fill="#EC5B5D" stroke="black" stroke-width="2"/>
<path d="M50.0919 333.542C46.6724 326.875 54.3663 322.034 58.6407 320.446C64.747 319.256 65.9683 320.446 68.4108 324.018C70.3648 326.875 68.4108 331.558 67.1895 333.542C65.9683 336.519 54.3663 341.876 50.0919 333.542Z" fill="#EC5B5D" stroke="black" stroke-width="2"/>
<path d="M12.0493 244.79C8.80073 238.493 16.11 233.921 20.1707 232.422C25.9717 231.297 27.1318 232.422 29.4522 235.795C31.3085 238.493 29.4522 242.916 28.292 244.79C27.1318 247.601 16.11 252.661 12.0493 244.79Z" fill="#EC5B5D" stroke="black" stroke-width="2"/>
<path d="M23.0919 147.542C19.6724 140.875 27.3663 136.034 31.6407 134.446C37.747 133.256 38.9683 134.446 41.4108 138.018C43.3648 140.875 41.4108 145.558 40.1895 147.542C38.9683 150.519 27.3663 155.876 23.0919 147.542Z" fill="#EC5B5D" stroke="black" stroke-width="2"/>
<path d="M193.049 36.5424C189.801 29.8754 197.11 25.0338 201.171 23.4465C206.972 22.2559 208.132 23.4465 210.452 27.0181C212.309 29.8754 210.452 34.5582 209.292 36.5424C208.132 39.5187 197.11 44.8762 193.049 36.5424Z" fill="#EC5B5D" stroke="black" stroke-width="2"/>
<path d="M146.7 349.078C153.323 340.446 158.527 341.485 160.301 343.084C169.172 349.677 157.345 355.071 133.098 383.842C108.852 412.612 89.9279 409.016 85.1969 406.019C80.4659 403.022 84.0043 394.997 99.1891 391.15C120.478 385.755 138.42 359.866 146.7 349.078Z" fill="#ECD7A4" stroke="black" stroke-width="2"/>
</svg>
