<svg width="126" height="182" viewBox="0 0 126 182" fill="none" xmlns="http://www.w3.org/2000/svg">
<path d="M27.0315 1.10374C31.5511 0.476022 35.043 2.76546 37.6575 6.55295C40.2491 10.3074 42.084 15.6581 43.3919 21.5647C46.0128 33.401 46.5989 47.8693 46.5989 57.384C46.5989 62.1522 46.7162 67.455 46.8773 73.1037C53.3361 72.604 60.7684 72.4866 69.1067 72.4865C72.7592 72.4865 76.1542 72.5477 79.3001 72.6848C80.0812 62.1524 81.2657 51.6867 82.9407 42.1545C84.8665 31.1954 87.4509 21.4088 90.848 14.1623C94.2151 6.97987 98.5363 1.96978 104.103 1.19651C108.622 0.568904 112.114 2.8583 114.729 6.64573C117.32 10.4002 119.155 15.7509 120.463 21.6574C123.084 33.4938 123.67 47.962 123.67 57.4768C123.67 77.7328 125.764 107.639 124.507 132.713C123.878 145.268 122.407 156.748 119.372 165.327C116.349 173.876 111.645 179.867 104.365 180.778C98.9474 181.455 94.5329 180.143 91.013 177.034C87.5343 173.962 85.0192 169.211 83.179 163.173C79.5018 151.107 78.3878 133.431 78.1087 112.222C78.0954 111.209 78.0866 110.183 78.0804 109.146C75.2544 109.68 72.6015 110.043 70.303 110.227C65.214 110.634 56.6239 110.674 47.8138 109.765C47.8828 117.555 47.8032 125.294 47.4358 132.62C46.8063 145.176 45.3352 156.656 42.3011 165.235C39.2775 173.783 34.5737 179.775 27.2933 180.685C21.8762 181.362 17.4615 180.051 13.9417 176.942C10.4631 173.869 7.94795 169.118 6.10772 163.08C2.43057 151.014 1.3165 133.339 1.03741 112.129C0.757686 90.8703 2.01541 63.9949 5.86944 42.0617C7.79515 31.1028 10.3797 21.316 13.7767 14.0696C17.1437 6.88722 21.4652 1.87717 27.0315 1.10374Z" fill="#74C9F1"/>
<path d="M27.0315 1.10374L26.894 0.113243L26.8939 0.113251L27.0315 1.10374ZM37.6575 6.55295L38.4805 5.98488L38.4805 5.98487L37.6575 6.55295ZM43.3919 21.5647L44.3683 21.3485V21.3485L43.3919 21.5647ZM46.5989 57.384H45.5989V57.384H46.5989ZM46.8773 73.1037L45.8777 73.1322L45.9076 74.1818L46.9544 74.1008L46.8773 73.1037ZM69.1067 72.4865V71.4865V71.4865V72.4865ZM79.3001 72.6848L79.2566 73.6838L80.2256 73.7261L80.2974 72.7587L79.3001 72.6848ZM82.9407 42.1545L81.9558 41.9814V41.9814L82.9407 42.1545ZM90.848 14.1623L89.9425 13.7379L89.9425 13.7379L90.848 14.1623ZM104.103 1.19651L103.965 0.206014L103.965 0.20602L104.103 1.19651ZM114.729 6.64573L115.552 6.07766L115.552 6.07764L114.729 6.64573ZM120.463 21.6574L121.44 21.4413V21.4413L120.463 21.6574ZM123.67 57.4768H124.67V57.4768H123.67ZM124.507 132.713L125.506 132.763V132.763L124.507 132.713ZM119.372 165.327L120.315 165.661V165.661L119.372 165.327ZM104.365 180.778L104.489 181.77L104.489 181.77L104.365 180.778ZM91.013 177.034L90.351 177.784L90.351 177.784L91.013 177.034ZM83.179 163.173L82.2224 163.465V163.465L83.179 163.173ZM78.1087 112.222L77.1088 112.235V112.235L78.1087 112.222ZM78.0804 109.146L79.0804 109.14L79.0732 107.941L77.8948 108.163L78.0804 109.146ZM70.303 110.227L70.3828 111.224H70.3828L70.303 110.227ZM47.8138 109.765L47.9164 108.77L46.8039 108.655L46.8138 109.774L47.8138 109.765ZM47.4358 132.62L48.4346 132.67V132.67L47.4358 132.62ZM42.3011 165.235L43.2439 165.568H43.2439L42.3011 165.235ZM27.2933 180.685L27.4173 181.677H27.4173L27.2933 180.685ZM13.9417 176.942L13.2797 177.691L13.2797 177.691L13.9417 176.942ZM6.10772 163.08L5.15115 163.372H5.15116L6.10772 163.08ZM1.03741 112.129L0.0374938 112.142V112.142L1.03741 112.129ZM5.86944 42.0617L4.88453 41.8887L4.88453 41.8887L5.86944 42.0617ZM13.7767 14.0696L12.8712 13.6451L12.8712 13.6451L13.7767 14.0696ZM27.0315 1.10374L27.1691 2.09423C31.189 1.53592 34.3519 3.52445 36.8346 7.12104L37.6575 6.55295L38.4805 5.98487C35.7342 2.00648 31.9132 -0.583872 26.894 0.113243L27.0315 1.10374ZM37.6575 6.55295L36.8345 7.12103C39.3162 10.7163 41.1171 15.917 42.4156 21.7809L43.3919 21.5647L44.3683 21.3485C43.0509 15.3993 41.182 9.89856 38.4805 5.98488L37.6575 6.55295ZM43.3919 21.5647L42.4155 21.7809C45.0124 33.5089 45.5989 47.8899 45.5989 57.384H46.5989H47.5989C47.5989 47.8487 47.0131 33.2931 44.3683 21.3485L43.3919 21.5647ZM46.5989 57.384H45.5989C45.5989 62.1668 45.7165 67.4811 45.8777 73.1322L46.8773 73.1037L47.8768 73.0752C47.7159 67.429 47.5989 62.1376 47.5989 57.384L46.5989 57.384ZM46.8773 73.1037L46.9544 74.1008C53.3725 73.6042 60.7723 73.4866 69.1067 73.4865V72.4865V71.4865C60.7644 71.4866 53.2997 71.6038 46.8001 72.1067L46.8773 73.1037ZM69.1067 72.4865V73.4865C72.7485 73.4865 76.1285 73.5475 79.2566 73.6838L79.3001 72.6848L79.3436 71.6857C76.1798 71.5479 72.7699 71.4865 69.1067 71.4865V72.4865ZM79.3001 72.6848L80.2974 72.7587C81.0767 62.2499 82.2579 51.8186 83.9256 42.3276L82.9407 42.1545L81.9558 41.9814C80.2736 51.5548 79.0857 62.0549 78.3028 72.6108L79.3001 72.6848ZM82.9407 42.1545L83.9256 42.3276C85.8454 31.4025 88.4113 21.7161 91.7534 14.5868L90.848 14.1623L89.9425 13.7379C86.4905 21.1015 83.8876 30.9883 81.9558 41.9814L82.9407 42.1545ZM90.848 14.1623L91.7534 14.5868C95.0958 7.45714 99.2146 2.88515 104.24 2.187L104.103 1.19651L103.965 0.20602C97.8579 1.0544 93.3344 6.5026 89.9425 13.7379L90.848 14.1623ZM104.103 1.19651L104.24 2.187C108.26 1.62879 111.423 3.6173 113.906 7.21382L114.729 6.64573L115.552 6.07764C112.806 2.09929 108.984 -0.490979 103.965 0.206014L104.103 1.19651ZM114.729 6.64573L113.906 7.2138C116.387 10.809 118.188 16.0098 119.487 21.8736L120.463 21.6574L121.44 21.4413C120.122 15.4921 118.253 9.99133 115.552 6.07766L114.729 6.64573ZM120.463 21.6574L119.487 21.8736C122.084 33.6017 122.67 47.9826 122.67 57.4768H123.67H124.67C124.67 47.9414 124.084 33.3859 121.44 21.4413L120.463 21.6574ZM123.67 57.4768H122.67C122.67 77.8611 124.765 107.601 123.508 132.663L124.507 132.713L125.506 132.763C126.764 107.676 124.67 77.6044 124.67 57.4768H123.67ZM124.507 132.713L123.508 132.663C122.88 145.194 121.414 156.556 118.43 164.994L119.372 165.327L120.315 165.661C123.399 156.941 124.875 145.343 125.506 132.763L124.507 132.713ZM119.372 165.327L118.43 164.994C115.445 173.433 110.941 178.948 104.241 179.785L104.365 180.778L104.489 181.77C112.348 180.787 117.253 174.319 120.315 165.661L119.372 165.327ZM104.365 180.778L104.241 179.785C99.0748 180.431 94.9559 179.183 91.675 176.285L91.013 177.034L90.351 177.784C94.1099 181.104 98.82 182.478 104.489 181.77L104.365 180.778ZM91.013 177.034L91.675 176.285C88.394 173.387 85.9507 168.837 84.1356 162.882L83.179 163.173L82.2224 163.465C84.0878 169.585 86.6747 174.537 90.351 177.784L91.013 177.034ZM83.179 163.173L84.1356 162.882C80.5055 150.97 79.3879 133.431 79.1086 112.209L78.1087 112.222L77.1088 112.235C77.3877 133.432 78.4982 151.244 82.2224 163.465L83.179 163.173ZM78.1087 112.222L79.1086 112.209C79.0953 111.199 79.0866 110.175 79.0804 109.14L78.0804 109.146L77.0804 109.152C77.0866 110.191 77.0954 111.219 77.1088 112.235L78.1087 112.222ZM78.0804 109.146L77.8948 108.163C75.0979 108.691 72.4806 109.049 70.2233 109.23L70.303 110.227L70.3828 111.224C72.7223 111.036 75.411 110.668 78.266 110.128L78.0804 109.146ZM70.303 110.227L70.2233 109.23C65.1977 109.632 56.6687 109.673 47.9164 108.77L47.8138 109.765L47.7112 110.76C56.579 111.674 65.2302 111.636 70.3828 111.224L70.303 110.227ZM47.8138 109.765L46.8138 109.774C46.8828 117.553 46.8031 125.27 46.4371 132.57L47.4358 132.62L48.4346 132.67C48.8033 125.318 48.8829 117.558 48.8137 109.756L47.8138 109.765ZM47.4358 132.62L46.4371 132.57C45.8088 145.101 44.3427 156.463 41.3583 164.901L42.3011 165.235L43.2439 165.568C46.3278 156.848 47.8038 145.25 48.4346 132.67L47.4358 132.62ZM42.3011 165.235L41.3583 164.901C38.3735 173.34 33.8701 178.855 27.1692 179.693L27.2933 180.685L27.4173 181.677C35.2772 180.695 40.1815 174.226 43.2439 165.568L42.3011 165.235ZM27.2933 180.685L27.1693 179.693C22.0036 180.338 17.8845 179.09 14.6037 176.192L13.9417 176.942L13.2797 177.691C17.0385 181.011 21.7489 182.385 27.4173 181.677L27.2933 180.685ZM13.9417 176.942L14.6037 176.192C11.3227 173.294 8.87937 168.744 7.06428 162.789L6.10772 163.08L5.15116 163.372C7.01652 169.492 9.60345 174.444 13.2797 177.691L13.9417 176.942ZM6.10772 163.08L7.06428 162.789C3.43424 150.877 2.31658 133.338 2.03732 112.116L1.03741 112.129L0.0374938 112.142C0.316424 133.339 1.4269 151.151 5.15115 163.372L6.10772 163.08ZM1.03741 112.129L2.03732 112.116C1.75808 90.8937 3.01483 64.0854 6.85435 42.2348L5.86944 42.0617L4.88453 41.8887C1.01599 63.9044 -0.242708 90.847 0.0374938 112.142L1.03741 112.129ZM5.86944 42.0617L6.85435 42.2348C8.77408 31.3099 11.3401 21.6233 14.6821 14.494L13.7767 14.0696L12.8712 13.6451C9.41931 21.0087 6.81623 30.8957 4.88453 41.8887L5.86944 42.0617ZM13.7767 14.0696L14.6821 14.494C18.0244 7.36452 22.1435 2.79253 27.1692 2.09422L27.0315 1.10374L26.8939 0.113251C20.7868 0.961818 16.263 6.40991 12.8712 13.6451L13.7767 14.0696Z" fill="black"/>
</svg>
