<svg width="435" height="378" viewBox="0 0 435 378" fill="none" xmlns="http://www.w3.org/2000/svg">
<path d="M364.752 10.9264C272.752 -22.2736 228.252 40.5931 217.752 76.4264C205.918 38.5931 158.952 -26.8736 65.7516 13.9264C-50.7484 64.9264 -15.7484 284.426 217.252 376.426C463.252 277.926 479.752 52.4264 364.752 10.9264Z" fill="#DE4E4E"/>
<path d="M236.496 191C233.662 207.167 232.996 239.6 252.996 240C272.996 240.4 271.662 207.5 268.496 191M217.752 76.4264C228.252 40.5931 272.752 -22.2736 364.752 10.9264C479.752 52.4264 463.252 277.926 217.252 376.426C-15.7484 284.426 -50.7484 64.9264 65.7516 13.9264C158.952 -26.8736 205.918 38.5931 217.752 76.4264Z" stroke="black" stroke-width="2"/>
<path d="M102.996 107.5V154.5" stroke="black" stroke-width="2"/>
<path d="M179.496 106.5V153.5H199.996" stroke="black" stroke-width="2"/>
<path d="M216.996 131C216.996 116.2 228.662 108.833 234.496 107C243.496 107 246.496 114 246.496 131C246.496 148 240.996 155.742 234.496 154C227.996 152.258 216.996 149.5 216.996 131Z" stroke="black" stroke-width="2"/>
<path d="M194.496 216.5C194.496 201.7 206.162 194.333 211.996 192.5C220.996 192.5 223.996 199.5 223.996 216.5C223.996 233.5 218.496 241.242 211.996 239.5C205.496 237.758 194.496 235 194.496 216.5Z" stroke="black" stroke-width="2"/>
<path d="M258.496 108L275.496 152.5L291.496 108" stroke="black" stroke-width="2"/>
<path d="M330.996 110.5H305.496V151.5H330.996" stroke="black" stroke-width="2"/>
<path d="M306.496 133.5H319.496" stroke="black" stroke-width="2"/>
<path d="M155.996 192L169.996 213.5L180.996 192" stroke="black" stroke-width="2"/>
<path d="M170.496 214.5L170.496 238.5" stroke="black" stroke-width="2"/>
</svg>
