<svg width="414" height="758" viewBox="0 0 414 758" fill="none" xmlns="http://www.w3.org/2000/svg">
<path d="M295.452 520.497C290.533 518.31 284.749 508.655 282.472 504.101L301.601 478.824C315.264 489.071 329.61 516.398 326.195 523.229C323.462 528.695 268.581 581.526 241.482 607.258L238.067 577.882C243.532 569.684 278.601 536.209 295.452 520.497Z" fill="#FCD3BF" stroke="black" stroke-width="2"/>
<path d="M156.087 519.813C160.186 515.031 165.879 507.289 168.384 502.051L149.255 468.576C130.127 480.873 119.196 510.249 121.929 519.813C124.115 527.465 169.75 580.387 192.295 605.892V571.051C189.016 566.678 167.701 534.16 156.087 519.813Z" fill="#FCD3BF" stroke="black" stroke-width="2"/>
<path d="M198.443 753.455C185.873 755.095 183.186 738.198 183.413 729.544H210.74C211.879 736.832 211.013 751.816 198.443 753.455Z" fill="black" stroke="black" stroke-width="2"/>
<path d="M253.096 756.188C242.166 757.281 237.156 741.158 236.017 732.96L261.294 728.861C263.116 737.515 264.027 755.095 253.096 756.188Z" fill="black" stroke="black" stroke-width="2"/>
<path d="M264.71 733.643C265.803 701.398 259.7 610.446 256.512 569.001C236.29 554.791 200.265 563.08 184.78 569.001C182.047 581.025 178.176 680.584 176.582 728.861C202.815 737.606 246.265 735.693 264.71 733.643Z" fill="#24496B" stroke="black" stroke-width="2"/>
<path d="M222.354 735.693V635.268" stroke="black" stroke-width="2"/>
<path d="M252.413 382.498L307.749 464.477L318.68 480.873L272.908 512.982L257.878 493.853C256.239 525.005 259.928 559.665 261.977 573.1C230.279 566.542 196.394 570.368 183.414 573.1C185.053 563.263 188.196 513.893 189.562 490.437C187.922 493.717 176.126 506.833 170.433 512.982C163.875 510.249 138.097 488.616 126.028 478.14C153.901 431.685 183.186 395.022 194.344 382.498H252.413Z" fill="black" stroke="black" stroke-width="2"/>
<path d="M201.176 379.082C202.269 376.896 200.72 362.686 199.809 355.854C206.914 349.296 230.552 351.755 241.482 353.805C240.571 361.32 239.296 376.896 241.482 379.082C243.668 381.268 248.314 382.27 250.363 382.498C246.948 384.775 235.88 389.603 218.938 390.696C201.996 391.789 195.483 385.686 194.344 382.498C197.077 381.405 200.037 379.765 201.176 379.082Z" fill="#FCD3BF" stroke="black" stroke-width="2"/>
<path d="M338.492 326.478C322.642 346.7 254.918 353.577 223.037 354.488C201.859 355.627 153.764 356.128 130.81 349.023C102.117 340.142 77.5233 329.211 63.86 314.865C52.9294 303.387 45.1869 270.231 44.0483 256.113L42.6821 254.063C10.5734 253.38 -3.77303 239.717 2.37543 221.954C7.29421 207.745 24.9198 204.192 33.1178 204.192L186.829 81.9059L355.571 191.212C374.472 188.707 412.273 189.572 412.273 213.073C412.273 236.574 382.214 243.816 367.184 244.499C369.234 286.855 358.303 301.201 338.492 326.478Z" fill="#FCD3BF"/>
<path d="M367.867 244.499C369.234 244.499 405.441 242.449 411.59 218.539C417.738 194.628 380.848 186.43 369.234 193.262C333.026 161.381 250.09 99.1217 208.007 105.134C165.925 111.145 74.3351 174.133 33.8007 204.875C22.6424 204.42 0.462379 208.701 1.00891 229.469C1.55544 250.237 29.9295 254.518 44.0482 254.063" stroke="black" stroke-linecap="round"/>
<path d="M27.6524 229.469C31.2959 228.558 39.4028 231.109 42.682 248.598C46.7809 270.459 46.0978 313.498 82.3054 329.894C118.513 346.29 131.493 358.587 223.037 354.488C314.581 350.389 330.977 342.191 355.571 303.251C380.164 264.31 352.838 226.053 382.214 215.806" stroke="black" stroke-linecap="round"/>
<path d="M207.867 104.143C218.641 102.604 231.908 105.441 246.221 110.951C260.558 116.471 276.06 124.718 291.349 134.135C321.634 152.789 351.184 176.09 369.367 192.049C372.487 190.455 376.907 189.794 381.653 189.967C386.763 190.152 392.392 191.308 397.462 193.45C402.526 195.589 407.106 198.744 410.023 202.973C412.963 207.236 414.168 212.53 412.559 218.787C409.357 231.238 398.356 237.893 388.266 241.428C378.749 244.763 369.77 245.425 368.095 245.492C368.09 246.56 368.093 247.651 368.099 248.763C368.184 264.441 368.891 284.033 356.417 303.785C344.077 323.323 333.686 335.319 314.781 342.864C295.984 350.366 268.83 353.439 223.083 355.487C177.241 357.54 146.568 353.951 125.016 348.542C103.448 343.128 91.0549 335.899 81.8198 330.768C64.1624 320.958 55.1547 305.853 50.0532 290.521C45.8947 278.023 44.2991 265.235 42.7476 255.091C35.6387 255.167 25.6118 254.108 17.0649 250.652C7.96607 246.973 0.298619 240.453 0.0102539 229.495C-0.27485 218.654 5.41585 212.076 12.5513 208.328C19.4767 204.69 27.7921 203.686 33.48 203.863C53.7911 188.474 86.6975 165.145 119.801 144.878C136.43 134.697 153.123 125.28 168.303 118.029C183.463 110.787 197.191 105.668 207.867 104.143ZM245.502 112.817C231.298 107.349 218.416 104.656 208.149 106.123C197.784 107.604 184.28 112.614 169.166 119.834C154.07 127.044 137.441 136.423 120.846 146.583C87.6561 166.903 54.6526 190.316 34.4058 205.672L34.1196 205.888L33.7603 205.874C28.2951 205.651 20.1497 206.596 13.481 210.098C6.87371 213.569 1.74828 219.516 2.00928 229.442C2.26744 239.252 9.05965 245.258 17.814 248.798C25.9325 252.08 35.5263 253.134 42.437 253.092C42.197 251.584 41.955 250.144 41.6997 248.783C40.0833 240.162 37.3038 235.379 34.6206 232.864C31.9441 230.356 29.3463 230.077 27.895 230.44C27.3597 230.574 26.8175 230.248 26.6831 229.713C26.5492 229.177 26.8748 228.634 27.4106 228.5C29.6029 227.952 32.8807 228.493 35.9878 231.404C39.0883 234.309 42.0029 239.547 43.6655 248.414C43.9481 249.921 44.2126 251.506 44.4741 253.159C44.8026 253.314 45.0356 253.642 45.0483 254.03C45.058 254.331 44.9322 254.604 44.728 254.794C46.2927 265.004 47.8338 277.517 51.9507 289.89C56.9499 304.915 65.7048 319.528 82.7915 329.02C92.0017 334.137 104.204 341.255 125.503 346.601C146.82 351.952 177.291 355.535 222.993 353.489C268.788 351.438 295.605 348.364 314.04 341.007C332.366 333.693 342.471 322.119 354.725 302.717C366.844 283.529 366.185 264.522 366.099 248.774C366.057 240.952 366.153 233.815 368.172 227.989C370.227 222.06 374.257 217.523 381.885 214.862C382.407 214.68 382.977 214.956 383.159 215.477C383.34 215.998 383.064 216.569 382.543 216.751C375.484 219.213 371.914 223.302 370.062 228.644C368.609 232.835 368.205 237.818 368.115 243.487C369.756 243.411 378.427 242.757 387.605 239.541C397.497 236.074 407.675 229.748 410.622 218.289C412.087 212.591 410.987 207.893 408.376 204.108C405.743 200.29 401.526 197.338 396.684 195.293C391.849 193.25 386.461 192.143 381.581 191.966C376.671 191.787 372.409 192.554 369.742 194.123L369.117 194.49L368.574 194.011C350.501 178.099 320.761 154.6 290.3 135.839C275.07 126.457 259.683 118.276 245.502 112.817Z" fill="black"/>
<path d="M244.898 134.509C230.689 127.951 216.205 139.519 210.74 146.123C210.74 127.678 201.176 121.529 199.126 120.846C197.077 120.163 175.216 114.698 164.968 142.707C154.787 170.535 139.212 179.482 107.524 197.685L106.899 198.044C81.2123 212.8 47.9195 209.202 34.484 205.558C27.9256 192.442 33.1177 164.113 36.5335 151.589C30.5217 157.6 12.1673 159.103 3.74167 159.103C28.3355 146.533 38.583 111.054 40.6325 94.886C30.2484 100.898 17.1772 98.7573 11.9396 96.9355C16.9495 95.1138 31.7514 87.5079 50.8799 71.6585C74.7906 51.8468 89.137 35.4509 106.899 27.2529C121.109 20.6945 131.493 26.7975 134.909 30.6687C140.921 15.3659 162.463 10.6293 172.483 10.1738C171.8 8.35206 175.079 4.02536 193.661 1.29271C212.243 -1.43995 218.71 15.6391 219.621 24.5202C221.898 21.1044 234.924 16.049 268.809 23.1539C311.165 32.035 331.66 60.0447 341.907 73.708C350.105 84.6386 377.204 109.232 389.729 120.163C384.81 125.082 372.65 127.222 367.184 127.678C379.208 138.062 384.947 155.688 386.313 163.202C383.034 159.923 373.561 158.192 369.234 157.737C371.283 161.836 374.699 174.133 375.382 182.331C375.929 188.889 369.234 193.262 365.818 194.628C359.67 198.044 342.864 205.012 324.828 205.558C302.284 206.242 288.621 195.994 278.373 182.331C268.126 168.668 262.661 142.707 244.898 134.509Z" fill="#E2B567" stroke="black" stroke-width="2"/>
<path d="M212.106 291.637C201.859 292.32 203.225 280.023 203.225 278.657C209.406 283.182 216.731 280.543 219.621 278.657C220.532 282.756 220.304 291.09 212.106 291.637Z" fill="black"/>
<path d="M210.74 234.251C212.106 236.529 213.883 241.903 210.057 245.182M203.225 278.657C203.225 280.023 201.859 292.32 212.106 291.637C220.304 291.09 220.532 282.756 219.621 278.657C216.731 280.543 209.406 283.182 203.225 278.657Z" stroke="black" stroke-width="3"/>
<path d="M265.393 236.301C258.835 236.847 258.562 224.687 258.561 217.855C258.561 211.236 259.928 198.863 265.393 199.41C272.225 200.093 272.225 211.024 272.225 217.172C272.225 223.321 273.591 235.618 265.393 236.301Z" fill="black"/>
<path d="M145.156 241.101C138.598 241.647 138.325 229.487 138.325 222.655C138.325 216.035 139.691 203.663 145.156 204.21C151.988 204.893 151.988 215.823 151.988 221.972C151.988 228.12 153.354 240.417 145.156 241.101Z" fill="black"/>
<path d="M218.938 193.945C223.037 204.648 231.781 226.873 233.968 230.152C236.7 234.251 241.482 243.816 251.047 247.231C258.106 247.915 274.274 248.871 282.472 247.231C292.72 245.182 296.135 240.4 296.819 230.152C297.365 221.954 302.056 207.608 304.333 201.459C297.274 197.133 282.336 187.25 279.056 182.331C262.888 184.608 227.956 190.119 217.572 193.945C212.334 192.806 199.809 191.485 191.611 195.311M191.611 195.311C179.315 191.44 149.119 184.244 126.711 186.43L101.434 198.044C103.939 208.519 109.905 231.245 113.731 238.35C118.513 247.231 119.196 248.598 134.226 249.964C146.249 251.057 158.364 250.419 162.919 249.964C166.107 249.736 173.303 247.095 176.582 238.35C180.681 227.42 186.146 208.291 191.611 195.311Z" stroke="black" stroke-width="3" stroke-linecap="round"/>
<path d="M198.443 42.2825C193.206 45.2429 183.414 53.7596 186.146 64.1437C188.879 74.5278 195.027 79.8564 197.76 81.2228C187.285 81.9059 166.061 78.3535 164.968 58.6784C163.875 39.0033 169.523 32.2628 172.483 31.3519C162.691 30.2133 142.151 33.9479 138.325 57.9952C135.137 55.2626 129.99 45.8349 134.909 29.9856" stroke="black" stroke-width="2" stroke-linecap="round"/>
<path d="M171.117 10.1738C175.216 9.94611 185.463 11.6768 190.928 17.6886" stroke="black" stroke-width="2"/>
</svg>
