<svg width="595" height="842" viewBox="0 0 595 842" fill="none" xmlns="http://www.w3.org/2000/svg">
<path d="M386.453 562.497C381.534 560.31 375.75 550.655 373.473 546.101L392.601 520.824C406.264 531.071 420.611 558.398 417.195 565.229C414.462 570.694 359.582 623.526 332.483 649.258L329.067 619.882C334.532 611.684 369.601 578.209 386.453 562.497Z" fill="#FCD3BF" stroke="black" stroke-width="2"/>
<path d="M247.088 561.813C251.187 557.031 256.88 549.289 259.385 544.051L240.256 510.576C221.127 522.873 210.197 552.249 212.929 561.813C215.116 569.465 260.751 622.387 283.295 647.892V613.051C280.016 608.678 258.701 576.16 247.088 561.813Z" fill="#FCD3BF" stroke="black" stroke-width="2"/>
<path d="M289.444 795.455C276.873 797.095 274.186 780.198 274.414 771.544H301.741C302.879 778.831 302.014 793.815 289.444 795.455Z" fill="black" stroke="black" stroke-width="2"/>
<path d="M344.097 798.188C333.166 799.281 328.156 783.158 327.018 774.96L352.295 770.861C354.116 779.515 355.027 797.095 344.097 798.188Z" fill="black" stroke="black" stroke-width="2"/>
<path d="M355.71 775.643C356.803 743.398 350.701 652.446 347.512 611.001C327.291 596.791 291.265 605.08 275.78 611.001C273.048 623.025 269.176 722.584 267.582 770.861C293.816 779.606 337.265 777.693 355.71 775.643Z" fill="#24496B" stroke="black" stroke-width="2"/>
<path d="M313.354 777.693V677.268" stroke="black" stroke-width="2"/>
<path d="M343.413 424.498L398.75 506.477L409.68 522.873L363.908 554.982L348.879 535.853C347.239 567.005 350.928 601.665 352.978 615.1C321.279 608.542 287.394 612.367 274.414 615.1C276.054 605.263 279.196 555.893 280.562 532.437C278.923 535.717 267.127 548.833 261.434 554.982C254.876 552.249 229.098 530.616 217.028 520.14C244.901 473.685 274.186 437.022 285.345 424.498H343.413Z" fill="black" stroke="black" stroke-width="2"/>
<path d="M292.176 421.082C293.269 418.896 291.721 404.686 290.81 397.854C297.915 391.296 321.552 393.755 332.483 395.805C331.572 403.32 330.297 418.896 332.483 421.082C334.669 423.268 339.314 424.27 341.364 424.498C337.948 426.775 326.881 431.602 309.938 432.696C292.996 433.789 286.483 427.686 285.345 424.498C288.077 423.405 291.038 421.765 292.176 421.082Z" fill="#FCD3BF" stroke="black" stroke-width="2"/>
<path d="M429.492 368.478C413.643 388.7 345.919 395.577 314.038 396.488C292.859 397.627 244.765 398.128 221.81 391.023C193.118 382.141 168.524 371.211 154.861 356.864C143.93 345.387 136.187 312.231 135.049 298.112L133.683 296.063C101.574 295.38 87.2275 281.717 93.3759 263.954C98.2947 249.744 115.92 246.192 124.118 246.192L277.83 123.906L446.571 233.212C465.472 230.707 503.274 231.572 503.274 255.073C503.274 278.574 473.215 285.816 458.185 286.499C460.234 328.855 449.304 343.201 429.492 368.478Z" fill="#FCD3BF"/>
<path d="M458.868 286.499C460.234 286.499 496.442 284.449 502.59 260.538C508.739 236.628 471.848 228.43 460.234 235.261C424.027 203.381 341.091 141.122 299.008 147.133C256.925 153.145 165.336 216.133 124.801 246.875C113.643 246.42 91.4629 250.701 92.0094 271.469C92.556 292.237 120.93 296.518 135.049 296.063" stroke="black" stroke-linecap="round"/>
<path d="M118.653 271.469C122.296 270.558 130.403 273.109 133.682 290.598C137.781 312.459 137.098 355.498 173.306 371.894C209.514 388.29 222.494 400.587 314.037 396.488C405.581 392.389 421.977 384.191 446.571 345.251C471.165 306.31 443.838 268.053 473.214 257.806" stroke="black" stroke-linecap="round"/>
<path d="M298.867 146.143C309.641 144.604 322.909 147.441 337.222 152.951C351.559 158.47 367.061 166.718 382.35 176.135C412.635 194.789 442.185 218.09 460.367 234.048C463.488 232.455 467.907 231.794 472.653 231.966C477.763 232.152 483.392 233.308 488.463 235.45C493.527 237.589 498.106 240.743 501.023 244.973C503.963 249.236 505.168 254.53 503.56 260.787C500.358 273.238 489.357 279.892 479.267 283.428C469.75 286.763 460.771 287.425 459.096 287.492C459.091 288.56 459.094 289.651 459.1 290.763C459.185 306.441 459.892 326.033 447.417 345.785C435.077 365.323 424.687 377.319 405.781 384.864C386.984 392.365 359.831 395.439 314.083 397.487C268.242 399.54 237.568 395.951 216.017 390.542C194.449 385.128 182.055 377.899 172.82 372.768C155.163 362.958 146.155 347.853 141.054 332.521C136.895 320.023 135.3 307.235 133.748 297.09C126.639 297.166 116.612 296.108 108.065 292.652C98.9666 288.973 91.2991 282.453 91.0108 271.495C90.7256 260.654 96.4163 254.076 103.552 250.328C110.477 246.69 118.793 245.685 124.48 245.863C144.792 230.473 177.698 207.145 210.802 186.878C227.431 176.697 244.124 167.28 259.304 160.029C274.464 152.787 288.191 147.668 298.867 146.143ZM336.503 154.817C322.298 149.348 309.417 146.656 299.149 148.123C288.784 149.604 275.281 154.614 260.166 161.834C245.071 169.044 228.442 178.423 211.847 188.583C178.657 208.903 145.653 232.316 125.406 247.672L125.12 247.888L124.761 247.874C119.296 247.651 111.15 248.596 104.481 252.098C97.8742 255.569 92.7488 261.516 93.0098 271.442C93.2679 281.252 100.06 287.258 108.814 290.797C116.933 294.08 126.527 295.134 133.438 295.091C133.197 293.584 132.955 292.144 132.7 290.783C131.084 282.162 128.304 277.378 125.621 274.864C122.945 272.356 120.347 272.077 118.896 272.44C118.36 272.574 117.818 272.248 117.684 271.713C117.55 271.177 117.875 270.634 118.411 270.5C120.603 269.952 123.881 270.493 126.988 273.404C130.089 276.309 133.003 281.547 134.666 290.414C134.949 291.921 135.213 293.506 135.475 295.159C135.803 295.314 136.036 295.642 136.049 296.03C136.059 296.33 135.933 296.603 135.729 296.794C137.293 307.004 138.834 319.517 142.951 331.89C147.95 346.915 156.705 361.527 173.792 371.02C183.002 376.137 195.204 383.255 216.504 388.601C237.821 393.952 268.292 397.536 313.993 395.49C359.788 393.439 386.605 390.363 405.04 383.006C423.366 375.693 433.473 364.119 445.727 344.717C457.845 325.529 457.185 306.522 457.1 290.774C457.057 282.952 457.154 275.815 459.173 269.989C461.228 264.06 465.258 259.523 472.886 256.862C473.407 256.68 473.977 256.956 474.159 257.477C474.34 257.998 474.065 258.569 473.544 258.751C466.484 261.213 462.914 265.302 461.063 270.644C459.61 274.835 459.205 279.818 459.115 285.487C460.757 285.411 469.427 284.757 478.605 281.541C488.498 278.074 498.675 271.748 501.622 260.289C503.087 254.591 501.987 249.893 499.377 246.108C496.744 242.29 492.526 239.338 487.685 237.293C482.85 235.25 477.462 234.143 472.581 233.965C467.671 233.787 463.409 234.554 460.742 236.123L460.117 236.49L459.574 236.011C441.502 220.099 411.762 196.6 381.301 177.839C366.07 168.457 350.683 160.276 336.503 154.817Z" fill="black"/>
<path d="M335.899 176.509C321.689 169.951 307.206 181.519 301.741 188.123C301.741 169.678 292.176 163.529 290.127 162.846C288.077 162.163 266.216 156.698 255.969 184.707C245.788 212.535 230.213 221.482 198.524 239.685L197.9 240.044C172.213 254.8 138.92 251.202 125.485 247.558C118.926 234.442 124.118 206.113 127.534 193.589C121.522 199.6 103.168 201.103 94.7422 201.103C119.336 188.533 129.583 153.054 131.633 136.886C121.249 142.898 108.178 140.757 102.94 138.935C107.95 137.114 122.752 129.508 141.88 113.658C165.791 93.8467 180.138 77.4508 197.9 69.2528C212.11 62.6945 222.494 68.7974 225.909 72.6686C231.921 57.3658 253.464 52.6292 263.484 52.1737C262.8 50.352 266.08 46.0253 284.662 43.2926C303.244 40.56 309.711 57.639 310.622 66.5202C312.899 63.1043 325.925 58.0489 359.81 65.1538C402.166 74.035 422.661 102.045 432.908 115.708C441.106 126.639 468.205 151.232 480.729 162.163C475.811 167.082 463.65 169.222 458.185 169.678C470.209 180.062 475.947 197.687 477.314 205.202C474.034 201.923 464.561 200.192 460.234 199.737C462.284 203.836 465.7 216.133 466.383 224.331C466.929 230.889 460.234 235.261 456.819 236.628C450.67 240.044 433.864 247.012 415.829 247.558C393.285 248.242 379.621 237.994 369.374 224.331C359.126 210.668 353.661 184.707 335.899 176.509Z" fill="#E2B567" stroke="black" stroke-width="2"/>
<path d="M294.226 320.657C294.226 322.023 292.859 334.32 303.107 333.637C311.305 333.09 311.533 324.756 310.622 320.657M301.74 276.251C303.107 278.528 304.883 283.903 301.057 287.182" stroke="black" stroke-width="3"/>
<path d="M309.938 235.945C314.037 246.647 322.782 268.873 324.968 272.152C327.701 276.251 332.483 285.815 342.047 289.231C349.106 289.914 365.275 290.871 373.473 289.231C383.72 287.182 387.136 282.4 387.819 272.152C388.366 263.954 393.057 249.608 395.334 243.459C388.275 239.133 373.336 229.25 370.057 224.331C353.889 226.608 318.956 232.119 308.572 235.945C303.335 234.806 290.81 233.485 282.612 237.311M282.612 237.311C270.315 233.44 240.119 226.244 217.711 228.43L192.434 240.044C194.939 250.519 200.906 273.245 204.731 280.35C209.514 289.231 210.197 290.598 225.226 291.964C237.25 293.057 249.365 292.419 253.919 291.964C257.107 291.736 264.303 289.095 267.582 280.35C271.681 269.42 277.147 250.291 282.612 237.311Z" stroke="black" stroke-width="3" stroke-linecap="round"/>
<path d="M289.444 84.2824C284.206 87.2428 274.414 95.7595 277.147 106.144C279.879 116.528 286.028 121.856 288.761 123.223C278.285 123.906 257.062 120.353 255.969 100.678C254.876 81.0032 260.523 74.2627 263.484 73.3518C253.692 72.2132 233.151 75.9478 229.325 99.9952C226.137 97.2625 220.991 87.8349 225.91 71.9855" stroke="black" stroke-width="2" stroke-linecap="round"/>
<path d="M262.117 52.1737C266.216 51.946 276.463 53.6767 281.929 59.6886" stroke="black" stroke-width="2"/>
<path d="M250 268.596C250.167 264.262 247.9 255.296 237.5 254.096C227.1 252.896 224.167 263.262 224 268.596" stroke="black" stroke-width="2"/>
<path d="M345.008 266.596C344.842 262.262 347.108 253.296 357.508 252.096C367.908 250.896 370.842 261.262 371.008 266.596" stroke="black" stroke-width="2"/>
</svg>
