<svg width="414" height="758" viewBox="0 0 414 758" fill="none" xmlns="http://www.w3.org/2000/svg">
<path d="M295.453 520.497C290.534 518.31 284.75 508.655 282.473 504.101L301.601 478.824C315.265 489.071 329.611 516.398 326.195 523.229C323.463 528.695 268.582 581.526 241.483 607.258L238.067 577.882C243.532 569.684 278.601 536.209 295.453 520.497Z" fill="#FCD3BF" stroke="black" stroke-width="2"/>
<path d="M156.088 519.813C160.187 515.031 165.88 507.289 168.385 502.051L149.256 468.576C130.127 480.873 119.197 510.249 121.929 519.813C124.116 527.465 169.751 580.387 192.295 605.892V571.051C189.016 566.678 167.701 534.16 156.088 519.813Z" fill="#FCD3BF" stroke="black" stroke-width="2"/>
<path d="M198.443 753.455C185.873 755.095 183.186 738.198 183.414 729.544H210.74C211.879 736.832 211.014 751.816 198.443 753.455Z" fill="black" stroke="black" stroke-width="2"/>
<path d="M253.097 756.188C242.166 757.281 237.156 741.158 236.018 732.96L261.295 728.861C263.116 737.515 264.027 755.095 253.097 756.188Z" fill="black" stroke="black" stroke-width="2"/>
<path d="M264.71 733.643C265.803 701.398 259.7 610.446 256.512 569.001C236.291 554.791 200.265 563.08 184.78 569.001C182.048 581.025 178.176 680.584 176.582 728.861C202.816 737.606 246.265 735.693 264.71 733.643Z" fill="#24496B" stroke="black" stroke-width="2"/>
<path d="M222.354 735.693V635.268" stroke="black" stroke-width="2"/>
<path d="M252.413 382.498L307.75 464.477L318.68 480.873L272.908 512.982L257.879 493.853C256.239 525.005 259.928 559.665 261.978 573.1C230.279 566.542 196.394 570.368 183.414 573.1C185.054 563.263 188.196 513.893 189.562 490.437C187.923 493.717 176.127 506.833 170.434 512.982C163.876 510.249 138.098 488.616 126.028 478.14C153.901 431.685 183.186 395.022 194.345 382.498H252.413Z" fill="black" stroke="black" stroke-width="2"/>
<path d="M201.176 379.082C202.269 376.896 200.721 362.686 199.81 355.854C206.915 349.296 230.552 351.755 241.483 353.805C240.572 361.32 239.297 376.896 241.483 379.082C243.669 381.268 248.315 382.27 250.364 382.498C246.948 384.775 235.881 389.603 218.939 390.696C201.996 391.789 195.483 385.686 194.345 382.498C197.077 381.405 200.038 379.765 201.176 379.082Z" fill="#FCD3BF" stroke="black" stroke-width="2"/>
<path d="M338.492 326.478C322.643 346.7 254.919 353.577 223.038 354.488C201.859 355.627 153.765 356.128 130.81 349.023C102.118 340.142 77.5238 329.211 63.8605 314.865C52.9299 303.387 45.1874 270.231 44.0488 256.113L42.6825 254.063C10.5739 253.38 -3.77254 239.717 2.37592 221.954C7.2947 207.745 24.9203 204.192 33.1183 204.192L186.83 81.9059L355.571 191.212C374.472 188.707 412.274 189.572 412.274 213.073C412.274 236.574 382.215 243.816 367.185 244.499C369.234 286.855 358.304 301.201 338.492 326.478Z" fill="#FCD3BF"/>
<path d="M367.868 244.499C369.234 244.499 405.442 242.449 411.59 218.539C417.739 194.628 380.848 186.43 369.234 193.262C333.027 161.381 250.091 99.1217 208.008 105.134C165.925 111.145 74.3356 174.133 33.8013 204.875C22.6429 204.42 0.462898 208.701 1.00943 229.469C1.55596 250.237 29.93 254.518 44.0487 254.063" stroke="black" stroke-linecap="round"/>
<path d="M27.6528 229.469C31.2964 228.558 39.4032 231.109 42.6824 248.598C46.7814 270.459 46.0982 313.498 82.3059 329.894C118.514 346.29 131.494 358.587 223.037 354.488C314.581 350.389 330.977 342.191 355.571 303.251C380.165 264.31 352.838 226.053 382.214 215.806" stroke="black" stroke-linecap="round"/>
<path d="M207.867 104.144C218.641 102.605 231.908 105.441 246.221 110.952C260.558 116.471 276.06 124.719 291.349 134.136C321.634 152.79 351.184 176.091 369.367 192.049C372.487 190.456 376.906 189.795 381.653 189.967C386.763 190.153 392.392 191.309 397.462 193.451C402.526 195.59 407.106 198.744 410.023 202.974C412.963 207.237 414.168 212.531 412.559 218.788C409.357 231.238 398.356 237.893 388.266 241.429C378.75 244.764 369.773 245.426 368.096 245.493C368.091 246.56 368.093 247.651 368.099 248.763C368.184 264.441 368.891 284.033 356.417 303.785C344.077 323.323 333.687 335.319 314.781 342.864C295.983 350.365 268.83 353.438 223.083 355.487C177.241 357.539 146.568 353.951 125.016 348.542C103.448 343.128 91.055 335.899 81.8198 330.768C64.1623 320.958 55.1547 305.853 50.0532 290.521C45.8947 278.023 44.3001 265.235 42.7486 255.09C35.6396 255.166 25.612 254.109 17.065 250.653C7.96621 246.974 0.298839 240.453 0.0102715 229.496C-0.274941 218.655 5.41589 212.077 12.5513 208.329C19.4768 204.691 27.792 203.686 33.48 203.864C53.791 188.474 86.6973 165.146 119.801 144.878C136.43 134.698 153.123 125.281 168.303 118.03C183.464 110.788 197.191 105.669 207.867 104.144ZM245.502 112.818C231.298 107.349 218.416 104.657 208.149 106.124C197.783 107.604 184.28 112.615 169.166 119.834C154.07 127.045 137.441 136.423 120.846 146.583C87.6559 166.904 54.6525 190.317 34.4058 205.672L34.1196 205.889L33.7603 205.875C28.295 205.651 20.1498 206.596 13.481 210.099C6.87375 213.57 1.74819 219.516 2.00929 229.443C2.26766 239.253 9.05981 245.259 17.814 248.798C25.9328 252.081 35.5272 253.134 42.438 253.091C42.198 251.584 41.955 250.144 41.6997 248.783C40.0833 240.162 37.304 235.378 34.6206 232.864C31.9439 230.356 29.3462 230.077 27.895 230.44C27.3597 230.573 26.8174 230.248 26.6831 229.712C26.5492 229.177 26.8749 228.633 27.4107 228.5C29.603 227.952 32.8806 228.492 35.9878 231.404C39.0884 234.309 42.0029 239.546 43.6655 248.414C43.9481 249.921 44.2127 251.506 44.4741 253.159C44.8029 253.314 45.0357 253.643 45.0484 254.031C45.0579 254.331 44.9329 254.603 44.729 254.793C46.2937 265.003 47.8338 277.517 51.9507 289.89C56.9499 304.915 65.7047 319.527 82.7915 329.02C92.0018 334.137 104.203 341.255 125.503 346.601C146.82 351.952 177.291 355.536 222.993 353.49C268.788 351.439 295.605 348.363 314.04 341.006C332.366 333.693 342.472 322.119 354.726 302.717C366.845 283.529 366.185 264.522 366.099 248.774C366.057 240.951 366.153 233.814 368.172 227.989C370.227 222.06 374.257 217.523 381.885 214.862C382.407 214.68 382.977 214.956 383.159 215.477C383.34 215.998 383.065 216.569 382.543 216.75C375.484 219.213 371.914 223.301 370.062 228.644C368.609 232.835 368.206 237.818 368.116 243.488C369.758 243.412 378.428 242.757 387.605 239.542C397.497 236.075 407.675 229.749 410.622 218.29C412.087 212.592 410.987 207.894 408.376 204.109C405.743 200.29 401.526 197.339 396.684 195.293C391.849 193.251 386.461 192.144 381.581 191.966C376.67 191.788 372.409 192.555 369.742 194.124L369.117 194.491L368.574 194.012C350.501 178.099 320.761 154.601 290.3 135.839C275.069 126.458 259.683 118.277 245.502 112.818Z" fill="black"/>
<path d="M244.899 134.509C230.689 127.951 216.206 139.519 210.741 146.123C210.741 127.678 201.176 121.529 199.127 120.846C197.077 120.163 175.216 114.698 164.969 142.707C154.788 170.535 139.213 179.482 107.524 197.685L106.9 198.044C81.2129 212.8 47.9201 209.202 34.4845 205.558C27.9262 192.442 33.1182 164.113 36.534 151.589C30.5222 157.6 12.1679 159.103 3.74219 159.103C28.3361 146.533 38.5835 111.054 40.633 94.886C30.2489 100.898 17.1777 98.7573 11.9401 96.9355C16.95 95.1138 31.7519 87.5079 50.8804 71.6585C74.7911 51.8468 89.1376 35.4509 106.9 27.2529C121.11 20.6945 131.494 26.7975 134.909 30.6687C140.921 15.3659 162.464 10.6293 172.484 10.1738C171.8 8.35206 175.08 4.02536 193.662 1.29271C212.244 -1.43995 218.711 15.6391 219.622 24.5202C221.899 21.1044 234.925 16.049 268.81 23.1539C311.166 32.035 331.661 60.0447 341.908 73.708C350.106 84.6386 377.205 109.232 389.729 120.163C384.811 125.082 372.65 127.222 367.185 127.678C379.209 138.062 384.947 155.688 386.314 163.202C383.034 159.923 373.561 158.192 369.234 157.737C371.284 161.836 374.7 174.133 375.383 182.331C375.929 188.889 369.234 193.262 365.819 194.628C359.67 198.044 342.864 205.012 324.829 205.558C302.285 206.242 288.621 195.994 278.374 182.331C268.126 168.668 262.661 142.707 244.899 134.509Z" fill="#E2B567" stroke="black" stroke-width="2"/>
<path d="M210.741 234.251C212.107 236.529 213.883 241.903 210.057 245.182" stroke="black" stroke-width="3"/>
<path d="M265.394 221.301C258.835 221.847 258.562 209.687 258.562 202.855C258.562 196.236 259.928 183.863 265.394 184.41C272.225 185.093 272.225 196.024 272.225 202.172C272.225 208.321 273.592 220.618 265.394 221.301Z" fill="black"/>
<path d="M145.157 224.101C138.598 224.647 138.325 212.487 138.325 205.655C138.325 199.035 139.691 186.663 145.157 187.21C151.988 187.893 151.988 198.823 151.988 204.972C151.988 211.12 153.355 223.417 145.157 224.101Z" fill="black"/>
<path d="M218.939 193.945C223.038 204.648 231.782 226.873 233.968 230.152C236.701 234.251 241.483 243.816 251.047 247.231C258.107 247.915 274.275 248.871 282.473 247.231C292.72 245.182 296.136 240.4 296.819 230.152C297.366 221.954 302.057 207.608 304.334 201.459C297.275 197.133 282.336 187.25 279.057 182.331C262.889 184.608 227.956 190.119 217.572 193.945C212.335 192.806 199.81 191.485 191.612 195.311M191.612 195.311C179.315 191.44 149.119 184.244 126.712 186.43L101.435 198.044C103.94 208.519 109.906 231.245 113.732 238.35C118.514 247.231 119.197 248.598 134.226 249.964C146.25 251.057 158.365 250.419 162.919 249.964C166.107 249.736 173.303 247.095 176.582 238.35C180.681 227.42 186.147 208.291 191.612 195.311Z" stroke="black" stroke-width="3" stroke-linecap="round"/>
<path d="M198.444 42.2825C193.206 45.2429 183.414 53.7596 186.147 64.1437C188.879 74.5278 195.028 79.8564 197.761 81.2228C187.285 81.9059 166.062 78.3535 164.969 58.6784C163.876 39.0033 169.523 32.2628 172.484 31.3519C162.692 30.2133 142.151 33.9479 138.325 57.9952C135.137 55.2626 129.991 45.8349 134.91 29.9856" stroke="black" stroke-width="2" stroke-linecap="round"/>
<path d="M207 285.8C207 278.902 210.603 277.752 212.404 278.04C213.789 278.04 216.644 279.592 216.976 285.8C217.309 292.008 214.067 293.847 212.404 293.991C210.603 294.134 207 292.697 207 285.8Z" fill="black" stroke="black"/>
<path d="M171.117 10.1738C175.216 9.94611 185.464 11.6768 190.929 17.6886" stroke="black" stroke-width="2"/>
</svg>
