<svg width="173" height="154" viewBox="0 0 173 154" fill="none" xmlns="http://www.w3.org/2000/svg">
<path d="M129.661 1C139.801 1.00008 148.682 6.58906 155.365 14.5439C162.048 22.501 166.623 32.9226 168.15 42.8477C169.655 52.6349 172.793 80.8533 170.344 106.097C169.253 117.347 167.041 128.102 163.019 136.384C162.752 137.252 162.431 138.096 162.045 138.912C160.946 141.238 159.365 143.3 157.248 145.042C155.661 146.74 153.9 148.183 151.948 149.316C148.042 151.583 143.434 152.578 138.053 151.994C128.976 151.01 121.926 147.31 116.49 141.703C112.726 139.432 108.815 136.794 104.815 133.853C94.3365 126.148 83.1948 116.344 72.387 105.626C72.3722 105.783 72.3592 105.94 72.344 106.097C71.1209 118.704 68.4942 130.69 63.4856 139.27C60.9743 143.571 57.8413 147.057 53.9475 149.316C50.0419 151.583 45.4339 152.578 40.053 151.994C29.4502 150.844 21.6103 145.992 15.8821 138.719C10.1783 131.477 6.59388 121.871 4.37427 111.215C-0.062346 89.9145 0.889369 64.0599 1.63892 43.5869L1.66138 42.9639C2.21414 27.8555 6.43202 17.7949 11.8342 11.3115C12.2076 10.5564 12.6934 9.8767 13.303 9.2832C16.5571 6.11472 19.8957 3.96758 23.3381 2.75195C26.4074 1.50742 29.3116 1.00004 31.6614 1C41.5153 1.00007 50.1804 6.27977 56.7942 13.8789C59.699 16.2518 62.6617 18.9027 65.6887 21.7744C74.7467 30.3678 87.1683 39.1689 99.4934 47.6865C99.5428 46.2987 99.5897 44.9311 99.6389 43.5869L99.6614 42.9639C100.268 26.3734 105.294 15.8689 111.455 9.50488C117.601 3.15665 124.813 1.00007 129.661 1Z" fill="#74C9F1"/>
<path d="M129.661 1V0H129.661L129.661 1ZM155.365 14.5439L156.13 13.9008V13.9007L155.365 14.5439ZM168.15 42.8477L169.138 42.6956V42.6956L168.15 42.8477ZM170.344 106.097L171.339 106.193V106.193L170.344 106.097ZM163.019 136.384L162.119 135.947L162.085 136.016L162.063 136.09L163.019 136.384ZM162.045 138.912L162.949 139.339L162.949 139.339L162.045 138.912ZM157.248 145.042L156.613 144.27L156.562 144.311L156.518 144.359L157.248 145.042ZM151.948 149.316L152.449 150.181H152.449L151.948 149.316ZM138.053 151.994L137.945 152.988H137.945L138.053 151.994ZM116.49 141.703L117.208 141.007L117.118 140.914L117.007 140.847L116.49 141.703ZM104.815 133.853L104.222 134.658V134.658L104.815 133.853ZM72.387 105.626L73.0911 104.916L71.5896 103.427L71.3914 105.532L72.387 105.626ZM72.344 106.097L73.3393 106.193L73.3393 106.193L72.344 106.097ZM63.4856 139.27L64.3492 139.774H64.3492L63.4856 139.27ZM53.9475 149.316L54.4494 150.181H54.4494L53.9475 149.316ZM40.053 151.994L39.9452 152.988H39.9452L40.053 151.994ZM15.8821 138.719L15.0965 139.337L15.0965 139.337L15.8821 138.719ZM4.37427 111.215L3.39528 111.419L3.39528 111.419L4.37427 111.215ZM1.63892 43.5869L2.63825 43.6235L2.63827 43.6229L1.63892 43.5869ZM1.66138 42.9639L0.662045 42.9273L0.662026 42.9278L1.66138 42.9639ZM11.8342 11.3115L12.6025 11.9517L12.6782 11.8608L12.7306 11.7547L11.8342 11.3115ZM13.303 9.2832L12.6054 8.56673L12.6054 8.56673L13.303 9.2832ZM23.3381 2.75195L23.6711 3.69489L23.6927 3.68727L23.7139 3.67867L23.3381 2.75195ZM31.6614 1L31.6614 0H31.6614L31.6614 1ZM56.7942 13.8789L56.0399 14.5354L56.0957 14.5996L56.1616 14.6534L56.7942 13.8789ZM65.6887 21.7744L65.0005 22.4999V22.4999L65.6887 21.7744ZM99.4934 47.6865L98.9249 48.5092L100.428 49.5478L100.493 47.7221L99.4934 47.6865ZM99.6389 43.5869L100.638 43.6235L100.638 43.6229L99.6389 43.5869ZM99.6614 42.9639L98.662 42.9273L98.662 42.9278L99.6614 42.9639ZM111.455 9.50488L110.737 8.80931L110.737 8.80932L111.455 9.50488ZM129.661 1V2C139.411 2.00007 148.036 7.37472 154.599 15.1871L155.365 14.5439L156.13 13.9007C149.328 5.80339 140.19 7.86185e-05 129.661 0V1ZM155.365 14.5439L154.599 15.1871C161.161 22.9995 165.661 33.2498 167.161 42.9997L168.15 42.8477L169.138 42.6956C167.584 32.5954 162.936 22.0025 156.13 13.9008L155.365 14.5439ZM168.15 42.8477L167.161 42.9997C168.661 52.7497 171.786 80.8751 169.349 106L170.344 106.097L171.339 106.193C173.8 80.8314 170.649 52.52 169.138 42.6956L168.15 42.8477ZM170.344 106.097L169.349 106C168.262 117.203 166.066 127.821 162.119 135.947L163.019 136.384L163.918 136.821C168.016 128.383 170.243 117.492 171.339 106.193L170.344 106.097ZM163.019 136.384L162.063 136.09C161.809 136.916 161.504 137.716 161.141 138.485L162.045 138.912L162.949 139.339C163.357 138.477 163.695 137.587 163.975 136.677L163.019 136.384ZM162.045 138.912L161.141 138.485C160.105 140.678 158.615 142.622 156.613 144.27L157.248 145.042L157.884 145.814C160.114 143.978 161.787 141.799 162.949 139.339L162.045 138.912ZM157.248 145.042L156.518 144.359C154.989 145.994 153.305 147.373 151.446 148.451L151.948 149.316L152.449 150.181C154.496 148.994 156.332 147.486 157.979 145.725L157.248 145.042ZM151.948 149.316L151.446 148.451C147.74 150.602 143.348 151.562 138.161 151L138.053 151.994L137.945 152.988C143.52 153.593 148.344 152.563 152.449 150.181L151.948 149.316ZM138.053 151.994L138.161 151C129.316 150.041 122.482 146.447 117.208 141.007L116.49 141.703L115.772 142.399C121.37 148.173 128.636 151.979 137.945 152.988L138.053 151.994ZM116.49 141.703L117.007 140.847C113.273 138.594 109.387 135.973 105.407 133.047L104.815 133.853L104.222 134.658C108.242 137.614 112.179 140.27 115.974 142.559L116.49 141.703ZM104.815 133.853L105.407 133.047C94.9785 125.379 83.8743 115.609 73.0911 104.916L72.387 105.626L71.6828 106.336C82.5154 117.079 93.6945 126.917 104.222 134.658L104.815 133.853ZM72.387 105.626L71.3914 105.532C71.3741 105.716 71.3648 105.834 71.3487 106L72.344 106.097L73.3393 106.193C73.3536 106.046 73.3703 105.85 73.3826 105.72L72.387 105.626ZM72.344 106.097L71.3487 106C70.1299 118.562 67.5204 130.375 62.622 138.765L63.4856 139.27L64.3492 139.774C69.468 131.006 72.1118 118.846 73.3393 106.193L72.344 106.097ZM63.4856 139.27L62.622 138.765C60.1727 142.961 57.1515 146.301 53.4456 148.451L53.9475 149.316L54.4494 150.181C58.5312 147.813 61.776 144.181 64.3492 139.774L63.4856 139.27ZM53.9475 149.316L53.4456 148.451C49.7397 150.602 45.3483 151.562 40.1608 151L40.053 151.994L39.9452 152.988C45.5196 153.593 50.3442 152.563 54.4494 150.181L53.9475 149.316ZM40.053 151.994L40.1608 151C29.8386 149.881 22.2381 145.173 16.6677 138.1L15.8821 138.719L15.0965 139.337C20.9824 146.811 29.0618 151.808 39.9452 152.988L40.053 151.994ZM15.8821 138.719L16.6677 138.1C11.0974 131.027 7.55678 121.59 5.35326 111.011L4.37427 111.215L3.39528 111.419C5.63098 122.152 9.25921 131.926 15.0965 139.337L15.8821 138.719ZM4.37427 111.215L5.35326 111.011C0.946179 89.8524 1.88759 64.1269 2.63825 43.6235L1.63892 43.5869L0.639586 43.5503C-0.108848 63.9928 -1.07087 89.9766 3.39528 111.419L4.37427 111.215ZM1.63892 43.5869L2.63827 43.6229L2.66073 42.9999L1.66138 42.9639L0.662026 42.9278L0.639565 43.5509L1.63892 43.5869ZM1.66138 42.9639L2.66071 43.0004C3.20718 28.064 7.37065 18.2305 12.6025 11.9517L11.8342 11.3115L11.066 10.6714C5.4934 17.3592 1.22109 27.6471 0.662046 42.9273L1.66138 42.9639ZM11.8342 11.3115L12.7306 11.7547C13.056 11.0967 13.476 10.5105 14.0006 9.99967L13.303 9.2832L12.6054 8.56673C11.9109 9.24288 11.3592 10.0161 10.9378 10.8683L11.8342 11.3115ZM13.303 9.2832L14.0006 9.99968C17.1713 6.91243 20.3896 4.8537 23.6711 3.69489L23.3381 2.75195L23.0052 1.80902C19.4019 3.08147 15.943 5.31701 12.6054 8.56673L13.303 9.2832ZM23.3381 2.75195L23.7139 3.67867C26.6714 2.47944 29.4484 2.00003 31.6614 2L31.6614 1L31.6614 0C29.1748 3.79086e-05 26.1434 0.535396 22.9624 1.82524L23.3381 2.75195ZM31.6614 1L31.6614 2C41.1368 2.00007 49.5483 7.07669 56.0399 14.5354L56.7942 13.8789L57.5485 13.2224C50.8126 5.48284 41.8939 7.64132e-05 31.6614 0L31.6614 1ZM56.7942 13.8789L56.1616 14.6534C59.0424 17.0067 61.9863 19.6403 65.0005 22.4999L65.6887 21.7744L66.377 21.0489C63.3372 18.1651 60.3555 15.4969 57.4268 13.1045L56.7942 13.8789ZM65.6887 21.7744L65.0005 22.4999C74.1235 31.1549 86.6091 39.998 98.9249 48.5092L99.4934 47.6865L100.062 46.8639C87.7274 38.3397 75.3699 29.5806 66.377 21.0489L65.6887 21.7744ZM99.4934 47.6865L100.493 47.7221C100.542 46.3324 100.589 44.9672 100.638 43.6235L99.6389 43.5869L98.6396 43.5503C98.5904 44.8951 98.5434 46.265 98.494 47.651L99.4934 47.6865ZM99.6389 43.5869L100.638 43.6229L100.661 42.9999L99.6614 42.9639L98.662 42.9278L98.6396 43.5509L99.6389 43.5869ZM99.6614 42.9639L100.661 43.0004C101.261 26.6007 106.22 16.3505 112.174 10.2004L111.455 9.50488L110.737 8.80932C104.368 15.3874 99.276 26.1461 98.662 42.9273L99.6614 42.9639ZM111.455 9.50488L112.174 10.2005C118.128 4.05055 125.078 2.00007 129.661 2L129.661 1L129.661 0C124.547 7.87377e-05 117.075 2.26274 110.737 8.80931L111.455 9.50488Z" fill="black"/>
</svg>
