<svg width="147" height="184" viewBox="0 0 147 184" fill="none" xmlns="http://www.w3.org/2000/svg">
<path d="M3.16553 31C5.56553 2.2 38.1655 1 58.1655 1C87.4989 1 146.766 14.5 145.166 62.5C143.566 110.5 89.4989 109.833 62.6655 103.5C67.1655 127.667 67.9655 177.2 35.1655 182C-5.83447 188 0.165531 67 3.16553 31Z" fill="#74C9F1" stroke="black" stroke-width="2"/>
<path d="M67.2654 57.2126C66.2 47.1776 73.9238 45.9892 77.9189 46.6494C79.9164 46.6494 84.311 48.762 85.909 57.2126C87.5071 65.6631 81.2481 68.2159 77.9189 68.436C74.8116 68.8761 68.3307 67.2476 67.2654 57.2126Z" fill="#5D77DF" stroke="black" stroke-width="2"/>
</svg>
