<svg width="116" height="188" viewBox="0 0 116 188" fill="none" xmlns="http://www.w3.org/2000/svg">
<path d="M5.05888 39.8965C7.77868 12.2755 20.3576 3.40212 37.923 1.40824C62.8544 -1.42177 114.077 10.2379 114.984 43.2925C115.883 76.0718 78.9649 85.2135 59.9305 85.7315C80.7592 85.882 139.062 167.943 101.952 184.793C72.0338 198.377 55.8661 145.928 51.522 118.005C52.8441 140.834 49.1422 186.152 23.7575 184.793C-7.97348 183.095 1.65913 74.4227 5.05888 39.8965Z" fill="#74C9F1"/>
<path d="M37.923 1.40824C20.3576 3.40212 7.77868 12.2755 5.05888 39.8965C1.65913 74.4227 -7.97348 183.095 23.7575 184.793C49.1422 186.152 52.8441 140.834 51.522 118.005C55.8661 145.928 72.0338 198.377 101.952 184.793C139.349 167.813 79.8531 84.6107 59.4547 85.7428C78.3422 85.3654 115.89 76.3471 114.984 43.2925C114.077 10.2379 62.8544 -1.42177 37.923 1.40824Z" stroke="black" stroke-width="2"/>
<path d="M48.0998 46.7125C47.0345 36.6775 54.7583 35.4891 58.7534 36.1493C60.7509 36.1493 65.1455 38.2619 66.7435 46.7125C68.3415 55.163 62.0826 57.7158 58.7534 57.9359C55.6461 58.376 49.1652 56.7475 48.0998 46.7125Z" fill="#5D77DF" stroke="black" stroke-width="2"/>
</svg>
