<svg width="167" height="186" viewBox="0 0 167 186" fill="none" xmlns="http://www.w3.org/2000/svg">
<path d="M79.7995 1.67529C88.4784 1.37214 109.812 -0.105868 128.882 2.59814C138.411 3.94941 147.49 6.35886 154.173 10.5581C160.906 14.7881 165.256 20.8773 165.096 29.4673C164.967 36.4097 161.217 41.7152 155.415 45.689C149.639 49.6446 141.76 52.3383 133.136 54.1255C124.476 55.9203 114.978 56.8168 105.935 57.1284C108.859 69.7016 113.977 96.9378 114.416 122.956C114.671 138.102 113.345 152.942 109.008 164.25C104.658 175.593 97.1961 183.547 85.1755 184.46C75.5768 185.189 68.451 181.041 63.2838 173.911C58.1569 166.836 54.9415 156.818 52.985 145.667C49.0691 123.35 50.1273 96.0483 51.4909 77.4038C52.2313 67.2802 54.0282 59.6207 56.3962 53.8081C46.8866 52.372 37.0351 50.4421 28.3454 47.9624C19.8246 45.5309 12.3207 42.5436 7.35709 38.9145C4.87157 37.0972 2.9579 35.072 1.90397 32.8101C0.834989 30.5154 0.68093 28.0368 1.61979 25.4292C3.86093 19.2051 8.89999 14.6882 15.3083 11.3979C21.7154 8.10836 29.5841 5.99421 37.6686 4.61279C53.8291 1.85142 71.1278 1.97815 79.7995 1.67529Z" fill="#74C9F1"/>
<path d="M79.7995 1.67529L79.8344 2.67468V2.67468L79.7995 1.67529ZM128.882 2.59814L129.022 1.60805V1.60805L128.882 2.59814ZM154.173 10.5581L154.706 9.71136L154.705 9.71136L154.173 10.5581ZM165.096 29.4673L166.096 29.4859V29.4859L165.096 29.4673ZM155.415 45.689L155.98 46.514L155.98 46.514L155.415 45.689ZM133.136 54.1255L133.339 55.1047H133.339L133.136 54.1255ZM105.935 57.1284L105.901 56.129L104.686 56.1709L104.961 57.3549L105.935 57.1284ZM114.416 122.956L115.416 122.939V122.939L114.416 122.956ZM109.008 164.25L109.942 164.608L109.942 164.608L109.008 164.25ZM85.1755 184.46L85.2512 185.458L85.2512 185.458L85.1755 184.46ZM63.2838 173.911L62.4741 174.497H62.4741L63.2838 173.911ZM52.985 145.667L52.0001 145.84V145.84L52.985 145.667ZM51.4909 77.4038L50.4935 77.3309V77.3309L51.4909 77.4038ZM56.3962 53.8081L57.3223 54.1854L57.8015 53.009L56.5455 52.8193L56.3962 53.8081ZM28.3454 47.9624L28.071 48.924L28.071 48.924L28.3454 47.9624ZM7.35709 38.9145L6.76686 39.7218L6.76688 39.7218L7.35709 38.9145ZM1.90397 32.8101L0.9975 33.2323L0.997533 33.2324L1.90397 32.8101ZM1.61979 25.4292L0.678922 25.0904L0.678912 25.0904L1.61979 25.4292ZM15.3083 11.3979L14.8515 10.5083L14.8515 10.5084L15.3083 11.3979ZM37.6686 4.61279L37.5002 3.62708V3.62708L37.6686 4.61279ZM79.7995 1.67529L79.8344 2.67468C88.5641 2.36975 109.782 0.89994 128.741 3.58824L128.882 2.59814L129.022 1.60805C109.841 -1.11168 88.3926 0.374526 79.7646 0.675899L79.7995 1.67529ZM128.882 2.59814L128.741 3.58824C138.22 4.93235 147.135 7.31665 153.642 11.4049L154.173 10.5581L154.705 9.71136C147.845 5.40107 138.602 2.96646 129.022 1.60805L128.882 2.59814ZM154.173 10.5581L153.641 11.4048C160.149 15.4934 164.248 21.2863 164.097 29.4487L165.096 29.4673L166.096 29.4859C166.264 20.4683 161.663 14.0829 154.706 9.71136L154.173 10.5581ZM165.096 29.4673L164.097 29.4487C163.975 35.9787 160.468 41.0159 154.85 44.8639L155.415 45.689L155.98 46.514C161.965 42.4146 165.959 36.8408 166.096 29.4859L165.096 29.4673ZM155.415 45.689L154.85 44.8639C149.231 48.7117 141.5 51.3709 132.933 53.1463L133.136 54.1255L133.339 55.1047C142.02 53.3057 150.046 50.5775 155.98 46.514L155.415 45.689ZM133.136 54.1255L132.933 53.1463C124.345 54.9262 114.907 55.8186 105.901 56.129L105.935 57.1284L105.97 58.1278C115.05 57.8149 124.607 56.9143 133.339 55.1047L133.136 54.1255ZM105.935 57.1284L104.961 57.3549C107.877 69.8917 112.979 97.0522 113.416 122.972L114.416 122.956L115.416 122.939C114.975 96.8235 109.842 69.5115 106.909 56.9019L105.935 57.1284ZM114.416 122.956L113.416 122.972C113.671 138.077 112.342 152.763 108.075 163.891L109.008 164.25L109.942 164.608C114.347 153.12 115.672 138.128 115.416 122.939L114.416 122.956ZM109.008 164.25L108.075 163.891C103.807 175.02 96.6 182.59 85.0997 183.463L85.1755 184.46L85.2512 185.458C97.7921 184.505 105.51 176.166 109.942 164.608L109.008 164.25ZM85.1755 184.46L85.0997 183.463C75.899 184.162 69.0891 180.217 64.0936 173.324L63.2838 173.911L62.4741 174.497C67.8128 181.864 75.2546 186.217 85.2512 185.458L85.1755 184.46ZM63.2838 173.911L64.0936 173.324C59.0981 166.43 55.9165 156.588 53.97 145.495L52.985 145.667L52.0001 145.84C53.9665 157.047 57.2157 167.241 62.4741 174.497L63.2838 173.911ZM52.985 145.667L53.97 145.495C50.0769 123.307 51.1253 96.1118 52.4882 77.4767L51.4909 77.4038L50.4935 77.3309C49.1293 95.9848 48.0612 123.392 52.0001 145.84L52.985 145.667ZM51.4909 77.4038L52.4882 77.4767C53.2229 67.431 55.0028 59.8789 57.3223 54.1854L56.3962 53.8081L55.4701 53.4308C53.0536 59.3625 51.2397 67.1293 50.4935 77.3309L51.4909 77.4038ZM56.3962 53.8081L56.5455 52.8193C47.0615 51.387 37.2548 49.4649 28.6198 47.0008L28.3454 47.9624L28.071 48.924C36.8153 51.4193 46.7117 53.3569 56.2468 54.7969L56.3962 53.8081ZM28.3454 47.9624L28.6198 47.0008C20.13 44.5781 12.7647 41.6295 7.9473 38.1073L7.35709 38.9145L6.76688 39.7218C11.8766 43.4577 19.5192 46.4837 28.071 48.924L28.3454 47.9624ZM7.35709 38.9145L7.94732 38.1073C5.53906 36.3465 3.76757 34.442 2.8104 32.3877L1.90397 32.8101L0.997533 33.2324C2.14823 35.702 4.20407 37.8479 6.76686 39.7218L7.35709 38.9145ZM1.90397 32.8101L2.81043 32.3878C1.85335 30.3333 1.71082 28.1284 2.56066 25.7679L1.61979 25.4292L0.678912 25.0904C-0.348963 27.9453 -0.183374 30.6975 0.9975 33.2323L1.90397 32.8101ZM1.61979 25.4292L2.56065 25.768C4.68539 19.8672 9.48618 15.5114 15.765 12.2875L15.3083 11.3979L14.8515 10.5084C8.3138 13.8651 3.03648 18.543 0.678922 25.0904L1.61979 25.4292ZM15.3083 11.3979L15.765 12.2875C22.0438 9.06383 29.8004 6.97175 37.837 5.5985L37.6686 4.61279L37.5002 3.62708C29.3678 5.01667 21.3869 7.15289 14.8515 10.5083L15.3083 11.3979ZM37.6686 4.61279L37.837 5.5985C53.9106 2.85199 71.1045 2.97958 79.8344 2.67468L79.7995 1.67529L79.7646 0.675899C71.1511 0.976727 53.7476 0.850859 37.5002 3.62708L37.6686 4.61279Z" fill="black"/>
</svg>
