<svg width="133" height="180" viewBox="0 0 133 180" fill="none" xmlns="http://www.w3.org/2000/svg">
<path d="M112.055 2.22381C116.483 0.806893 120.147 0.635148 123.088 1.63202C126.061 2.63998 128.149 4.79299 129.494 7.70917C132.14 13.4442 132.005 22.3094 130.282 32.2082C126.821 52.0974 116.773 77.0972 107.717 92.1906C103.067 99.9413 95.6319 106.462 86.8253 110.929C87.5247 114.04 87.8575 116.795 88.0861 118.405C88.5178 121.447 89.906 135.617 88.0871 149.438C87.1781 156.344 85.4583 163.249 82.3546 168.643C79.2352 174.064 74.672 178.024 68.1242 178.82C61.6948 179.6 56.7711 177.805 53.09 174.181C49.4543 170.601 47.1134 165.321 45.6085 159.263C42.6 147.151 42.8217 131.445 43.2453 118.514C43.2893 117.169 43.3937 115.89 43.5539 114.674C38.6263 112.984 33.8688 110.469 29.4621 107.019C20.7465 100.195 13.4541 89.7602 8.90347 74.9709C-0.114326 45.663 -0.185507 29.5509 2.65249 20.1984C5.49945 10.8167 11.4 8.22145 13.1525 6.46893C14.3759 5.24567 16.8494 4.22818 19.7287 3.87128C22.6579 3.50822 26.1802 3.80348 29.5949 5.39471C36.5092 8.61702 42.6064 16.946 42.8595 34.6623C43.1086 52.0976 45.727 63.5245 49.7306 70.6223C53.6941 77.6484 59.0134 80.4414 64.8996 80.6769C70.5076 80.9013 75.9005 76.0528 80.2033 67.4816C84.4595 59.0032 87.4362 47.2632 88.3625 34.6037C89.1222 24.2198 91.7921 17.1215 95.966 12.0998C100.138 7.08081 105.716 4.25219 112.055 2.22381Z" fill="#74C9F1"/>
<path fill-rule="evenodd" clip-rule="evenodd" d="M112.055 2.22381L111.75 1.27139L111.75 1.27139L112.055 2.22381ZM123.088 1.63202L123.409 0.68497L123.409 0.684957L123.088 1.63202ZM129.494 7.70917L130.402 7.29024L130.402 7.29021L129.494 7.70917ZM130.282 32.2082L131.268 32.3796V32.3796L130.282 32.2082ZM107.717 92.1906L108.574 92.7051H108.574L107.717 92.1906ZM86.8253 110.929L86.373 110.037L85.679 110.389L85.8497 111.148L86.8253 110.929ZM88.0861 118.405L87.096 118.546V118.546L88.0861 118.405ZM88.0871 149.438L89.0785 149.568V149.568L88.0871 149.438ZM82.3546 168.643L83.2214 169.141H83.2214L82.3546 168.643ZM68.1242 178.82L68.2447 179.812H68.2448L68.1242 178.82ZM53.09 174.181L52.3884 174.893L52.3884 174.893L53.09 174.181ZM45.6085 159.263L44.638 159.504L44.638 159.504L45.6085 159.263ZM43.2453 118.514L42.2458 118.481V118.481L43.2453 118.514ZM43.5539 114.674L44.5453 114.805L44.6521 113.994L43.8783 113.728L43.5539 114.674ZM29.4621 107.019L28.8456 107.806L28.8456 107.806L29.4621 107.019ZM8.90347 74.9709L7.94769 75.265L7.94769 75.265L8.90347 74.9709ZM2.65249 20.1984L1.69558 19.908L1.69558 19.9081L2.65249 20.1984ZM13.1525 6.46893L12.4454 5.76177L12.4454 5.76182L13.1525 6.46893ZM19.7287 3.87128L19.6057 2.87887L19.6057 2.87887L19.7287 3.87128ZM29.5949 5.39471L30.0173 4.48831L30.0173 4.4883L29.5949 5.39471ZM42.8595 34.6623L43.8594 34.648V34.648L42.8595 34.6623ZM49.7306 70.6223L48.8596 71.1136L48.8596 71.1136L49.7306 70.6223ZM64.8996 80.6769L64.8596 81.6761H64.8596L64.8996 80.6769ZM80.2033 67.4816L81.097 67.9303V67.9303L80.2033 67.4816ZM88.3625 34.6037L87.3651 34.5307V34.5307L88.3625 34.6037ZM95.966 12.0998L95.1969 11.4606L95.1969 11.4606L95.966 12.0998ZM112.055 2.22381L112.36 3.17624C116.672 1.7963 120.102 1.67565 122.767 2.57908L123.088 1.63202L123.409 0.684957C120.193 -0.405355 116.294 -0.182518 111.75 1.27139L112.055 2.22381ZM123.088 1.63202L122.767 2.57907C125.432 3.48249 127.332 5.41028 128.586 8.12812L129.494 7.70917L130.402 7.29021C128.965 4.17569 126.69 1.79748 123.409 0.68497L123.088 1.63202ZM129.494 7.70917L128.586 8.12809C131.094 13.5638 131.016 22.1595 129.297 32.0368L130.282 32.2082L131.268 32.3796C132.994 22.4593 133.186 13.3247 130.402 7.29024L129.494 7.70917ZM130.282 32.2082L129.297 32.0368C125.86 51.7916 115.859 76.6761 106.859 91.6761L107.717 92.1906L108.574 92.7051C117.687 77.5182 127.783 52.4032 131.268 32.3796L130.282 32.2082ZM107.717 92.1906L106.859 91.6761C102.321 99.2406 95.0395 105.641 86.373 110.037L86.8253 110.929L87.2777 111.821C96.2243 107.283 103.812 100.642 108.574 92.7051L107.717 92.1906ZM86.8253 110.929L85.8497 111.148C86.538 114.21 86.8645 116.915 87.096 118.546L88.0861 118.405L89.0762 118.265C88.8505 116.675 88.5115 113.87 87.801 110.71L86.8253 110.929ZM88.0861 118.405L87.096 118.546C87.5203 121.535 88.8986 135.608 87.0956 149.307L88.0871 149.438L89.0785 149.568C90.9134 135.627 89.5153 121.359 89.0762 118.265L88.0861 118.405ZM88.0871 149.438L87.0956 149.307C86.1941 156.157 84.4974 162.913 81.4879 168.144L82.3546 168.643L83.2214 169.141C86.4191 163.584 88.1621 156.531 89.0785 149.568L88.0871 149.438ZM82.3546 168.643L81.4879 168.144C78.4781 173.375 74.1552 177.08 68.0036 177.827L68.1242 178.82L68.2448 179.812C75.1888 178.969 79.9922 174.754 83.2214 169.141L82.3546 168.643ZM68.1242 178.82L68.0036 177.827C61.852 178.574 57.2385 176.862 53.7915 173.468L53.09 174.181L52.3884 174.893C56.3037 178.748 61.5376 180.627 68.2447 179.812L68.1242 178.82ZM53.09 174.181L53.7916 173.468C50.3445 170.075 48.064 164.999 46.5791 159.022L45.6085 159.263L44.638 159.504C46.1629 165.642 48.564 171.128 52.3884 174.893L53.09 174.181ZM45.6085 159.263L46.5791 159.022C43.6093 147.066 43.8205 131.498 44.2447 118.547L43.2453 118.514L42.2458 118.481C41.8229 131.392 41.5907 147.236 44.638 159.504L45.6085 159.263ZM43.2453 118.514L44.2447 118.547C44.2878 117.233 44.3896 115.986 44.5453 114.805L43.5539 114.674L42.5624 114.543C42.3977 115.794 42.2909 117.106 42.2458 118.481L43.2453 118.514ZM43.5539 114.674L43.8783 113.728C39.053 112.073 34.3947 109.611 30.0785 106.231L29.4621 107.019L28.8456 107.806C33.3428 111.327 38.1997 113.895 43.2294 115.62L43.5539 114.674ZM29.4621 107.019L30.0786 106.231C21.5474 99.5517 14.3592 89.3016 9.85925 74.6768L8.90347 74.9709L7.94769 75.265C12.5489 90.2188 19.9456 100.838 28.8456 107.806L29.4621 107.019ZM8.90347 74.9709L9.85925 74.6768C0.859317 45.427 0.859409 29.5513 3.60941 20.4888L2.65249 20.1984L1.69558 19.9081C-1.23042 29.5506 -1.08797 45.899 7.94769 75.265L8.90347 74.9709ZM2.65249 20.1984L3.60941 20.4888C4.98039 15.9709 7.07383 13.117 9.01838 11.1815C9.99616 10.2082 10.9455 9.45796 11.7749 8.83272C12.5631 8.23846 13.3562 7.67945 13.8596 7.17604L13.1525 6.46893L12.4454 5.76182C12.0725 6.13467 11.4708 6.55726 10.5709 7.23569C9.71207 7.88313 8.67972 8.69665 7.60744 9.76398C5.45186 11.9096 3.17156 15.0442 1.69558 19.908L2.65249 20.1984ZM13.1525 6.46893L13.8595 7.17609C14.8595 6.17626 17.0783 5.20745 19.8517 4.86368L19.7287 3.87128L19.6057 2.87887C16.6204 3.24891 13.8924 4.31508 12.4454 5.76177L13.1525 6.46893ZM19.7287 3.87128L19.8517 4.86368C22.6251 4.51993 25.9538 4.80122 29.1725 6.30113L29.5949 5.39471L30.0173 4.4883C26.4066 2.80573 22.6906 2.49651 19.6057 2.87887L19.7287 3.87128ZM29.5949 5.39471L29.1725 6.30112C35.6094 9.30093 41.6096 17.1761 41.8596 34.6766L42.8595 34.6623L43.8594 34.648C43.6032 16.7159 37.4091 7.93311 30.0173 4.48831L29.5949 5.39471ZM42.8595 34.6623L41.8596 34.6766C42.1096 52.1761 44.7348 63.801 48.8596 71.1136L49.7306 70.6223L50.6016 70.131C46.7191 63.248 44.1076 52.019 43.8594 34.648L42.8595 34.6623ZM49.7306 70.6223L48.8596 71.1136C52.9846 78.4261 58.6098 81.4261 64.8596 81.6761L64.8996 80.6769L64.9395 79.6777C59.417 79.4568 54.4035 76.8706 50.6016 70.1309L49.7306 70.6223ZM64.8996 80.6769L64.8596 81.6761C71.1087 81.9261 76.7671 76.5553 81.097 67.9303L80.2033 67.4816L79.3096 67.033C75.0338 75.5502 69.9064 79.8764 64.9395 79.6777L64.8996 80.6769ZM80.2033 67.4816L81.097 67.9303C85.4261 59.3066 88.4266 47.4317 89.3598 34.6767L88.3625 34.6037L87.3651 34.5307C86.4459 47.0948 83.4929 58.6997 79.3096 67.033L80.2033 67.4816ZM88.3625 34.6037L89.3598 34.6767C90.1098 24.4267 92.7351 17.5515 96.735 12.739L95.966 12.0998L95.1969 11.4606C90.8492 16.6915 88.1347 24.0128 87.3651 34.5307L88.3625 34.6037ZM95.966 12.0998L96.735 12.739C100.735 7.92666 106.11 5.17619 112.36 3.17624L112.055 2.22381L111.75 1.27139C105.323 3.32819 99.5404 6.23496 95.1969 11.4606L95.966 12.0998Z" fill="black"/>
</svg>
